<svg width="87" height="21" viewBox="0 0 87 21" fill="none" xmlns="http://www.w3.org/2000/svg">
<path d="M2.56 20L0.64 0.608H10.72L9.28 15.04L15.072 14.72L13.248 20H2.56ZM35.4628 17.888C33.5428 19.5093 30.9508 20.32 27.6868 20.32C24.4228 20.32 21.8201 19.5093 19.8788 17.888C17.9588 16.2667 16.9988 13.7173 16.9988 10.24V0.608H25.5108V11.808C25.5108 14.304 25.8308 15.8187 26.4708 16.352C26.7694 16.6293 27.1748 16.768 27.6868 16.768C28.1988 16.768 28.6041 16.64 28.9028 16.384C29.2228 16.1067 29.4468 15.6907 29.5748 15.136C29.7668 14.2827 29.8628 13.1733 29.8628 11.808V0.608H38.3748V10.24C38.3748 13.7173 37.4041 16.2667 35.4628 17.888ZM51.4963 0.608L57.1603 11.904L56.2643 0.608H63.6563L62.0563 20H52.6803L47.3043 9.44L46.2483 20H42.0563L40.4563 0.608H51.4963ZM79.9888 20L78.7088 16.768H70.5488L69.3328 20H64.7888L70.1968 0.608H81.5888L86.9968 20H79.9888ZM77.0768 12.608L74.5488 6.208L72.1168 12.608H77.0768Z" fill="#01559B"/>
</svg>
