<svg width="9" height="14" viewBox="0 0 9 14" fill="none" xmlns="http://www.w3.org/2000/svg">
<path d="M0.500278 1.20358C0.500226 1.31778 0.522674 1.43088 0.566338 1.53641C0.610002 1.64194 0.674028 1.73783 0.754758 1.81862L5.93711 7.00038L0.754759 12.1822C0.591639 12.3453 0.5 12.5665 0.5 12.7972C0.5 13.0279 0.591639 13.2491 0.754759 13.4122C0.917878 13.5754 1.13911 13.667 1.3698 13.667C1.60049 13.667 1.82172 13.5754 1.98484 13.4122L7.78165 7.61542C7.86245 7.53467 7.92655 7.4388 7.97028 7.33326C8.01402 7.22773 8.03652 7.11462 8.03652 7.00038C8.03652 6.88615 8.01402 6.77303 7.97028 6.6675C7.92655 6.56197 7.86245 6.46609 7.78165 6.38534L1.98484 0.588533C1.86323 0.466849 1.70827 0.383972 1.53954 0.350388C1.37082 0.316806 1.19593 0.334025 1.03699 0.39987C0.878062 0.465714 0.742232 0.577224 0.646693 0.720288C0.551154 0.863353 0.5002 1.03154 0.500278 1.20358Z" fill="#929292"/>
</svg>
