<svg width="9" height="14" viewBox="0 0 9 14" fill="none" xmlns="http://www.w3.org/2000/svg">
<path d="M8.49972 12.7964C8.49977 12.6822 8.47733 12.5691 8.43366 12.4636C8.39 12.3581 8.32597 12.2622 8.24524 12.1814L3.06289 6.99962L8.24524 1.81785C8.40836 1.65473 8.5 1.43349 8.5 1.20281C8.5 0.972122 8.40836 0.750885 8.24524 0.587766C8.08212 0.424647 7.86089 0.333008 7.6302 0.333008C7.39951 0.333008 7.17828 0.424647 7.01516 0.587766L1.21835 6.38457C1.13755 6.46532 1.07345 6.5612 1.02972 6.66674C0.985984 6.77227 0.963475 6.88538 0.963475 6.99962C0.963475 7.11385 0.985984 7.22696 1.02972 7.3325C1.07345 7.43803 1.13755 7.53391 1.21835 7.61466L7.01516 13.4115C7.13676 13.5332 7.29173 13.616 7.46046 13.6496C7.62918 13.6832 7.80407 13.666 7.963 13.6001C8.12194 13.5343 8.25777 13.4228 8.35331 13.2797C8.44884 13.1366 8.4998 12.9685 8.49972 12.7964Z" fill="#929292"/>
</svg>
