<svg width="16" height="16" viewBox="0 0 16 16" fill="none" xmlns="http://www.w3.org/2000/svg">
<path d="M4.66638 7.33276H5.99972V8.6661H4.66638V7.33276ZM4.66638 9.99943H5.99972V11.3328H4.66638V9.99943ZM7.33305 7.33276H8.66638V8.6661H7.33305V7.33276ZM7.33305 9.99943H8.66638V11.3328H7.33305V9.99943ZM9.99971 7.33276H11.333V8.6661H9.99971V7.33276ZM9.99971 9.99943H11.333V11.3328H9.99971V9.99943Z" fill="#3A3B3C"/>
<path d="M3.33333 14.6661H12.6667C13.402 14.6661 14 14.0681 14 13.3328V3.99943C14 3.2641 13.402 2.6661 12.6667 2.6661H11.3333V1.33276H10V2.6661H6V1.33276H4.66667V2.6661H3.33333C2.598 2.6661 2 3.2641 2 3.99943V13.3328C2 14.0681 2.598 14.6661 3.33333 14.6661ZM12.6667 5.33276L12.6673 13.3328H3.33333V5.33276H12.6667Z" fill="#3A3B3C"/>
</svg>
