<svg width="12" height="12" viewBox="0 0 12 12" fill="none" xmlns="http://www.w3.org/2000/svg">
<path fill-rule="evenodd" clip-rule="evenodd" d="M6 0.5C6.13261 0.5 6.25979 0.552678 6.35355 0.646447C6.44732 0.740215 6.5 0.867392 6.5 1V5.5H11C11.1326 5.5 11.2598 5.55268 11.3536 5.64645C11.4473 5.74022 11.5 5.86739 11.5 6C11.5 6.13261 11.4473 6.25979 11.3536 6.35355C11.2598 6.44732 11.1326 6.5 11 6.5H6.5V11C6.5 11.1326 6.44732 11.2598 6.35355 11.3536C6.25979 11.4473 6.13261 11.5 6 11.5C5.86739 11.5 5.74022 11.4473 5.64645 11.3536C5.55268 11.2598 5.5 11.1326 5.5 11V6.5H1C0.867392 6.5 0.740215 6.44732 0.646447 6.35355C0.552678 6.25979 0.5 6.13261 0.5 6C0.5 5.86739 0.552678 5.74022 0.646447 5.64645C0.740215 5.55268 0.867392 5.5 1 5.5H5.5V1C5.5 0.867392 5.55268 0.740215 5.64645 0.646447C5.74022 0.552678 5.86739 0.5 6 0.5Z" fill="currentColor"/>
</svg>