<svg width="16" height="18" viewBox="0 0 16 18" fill="none" xmlns="http://www.w3.org/2000/svg">
<path d="M12.8003 4.92203V3.8554L1.36335 3.87193L3.66834 1.56588L2.91423 0.811768L0.468443 3.25755C0.168499 3.55759 0 3.96447 0 4.38872C0 4.81297 0.168499 5.21985 0.468443 5.51988L2.91423 7.96567L3.66834 7.21156L1.39535 4.93857L12.8003 4.92203Z" fill="#87898D"/>
<g clip-path="url(#clip0_1773_318)">
<path d="M15.5326 9.65721L13.0868 7.21143L12.3327 7.96553L14.6057 10.2391L3.2002 10.2551V11.3217L14.6377 11.3057L12.3322 13.6112L13.0863 14.3653L15.5326 11.9195C15.8316 11.619 15.9995 11.2123 15.9995 10.7884C15.9995 10.3644 15.8316 9.95773 15.5326 9.65721Z" fill="#87898D"/>
</g>
<defs>
<clipPath id="clip0_1773_318">
<rect width="12.7996" height="12.7996" fill="white" transform="translate(3.2002 4.38867)"/>
</clipPath>
</defs>
</svg>
