<svg width="24" height="24" viewBox="0 0 24 24" fill="none" xmlns="http://www.w3.org/2000/svg">
<circle cx="12" cy="12" r="1" fill="currentColor"/>
<path d="M15 12C15 14.6668 14.5658 17.035 13.9 18.6997C13.5659 19.5348 13.1932 20.1435 12.8304 20.527C12.4697 20.9085 12.1887 21 12 21C11.8113 21 11.5303 20.9085 11.1696 20.527C10.8068 20.1435 10.4341 19.5348 10.1 18.6997C9.43419 17.035 9 14.6668 9 12C9 9.33323 9.43419 6.96497 10.1 5.30032C10.4341 4.46523 10.8068 3.85653 11.1696 3.47296C11.5303 3.0915 11.8113 3 12 3C12.1887 3 12.4697 3.0915 12.8304 3.47296C13.1932 3.85653 13.5659 4.46523 13.9 5.30032C14.5658 6.96497 15 9.33323 15 12Z" stroke="currentColor" stroke-width="2"/>
<path d="M13.5 14.5982C11.1905 15.9316 8.92246 16.7397 7.14791 16.9954C6.25768 17.1236 5.54415 17.1052 5.0306 16.9828C4.51988 16.8611 4.30015 16.6635 4.2058 16.5001C4.11144 16.3367 4.0502 16.0476 4.20018 15.5445C4.35099 15.0385 4.69176 14.4114 5.24796 13.7045C6.35665 12.2956 8.19053 10.7354 10.5 9.40204C12.8095 8.06865 15.0776 7.26054 16.8521 7.00487C17.7424 6.87661 18.4559 6.89506 18.9694 7.01742C19.4802 7.13911 19.6999 7.33668 19.7943 7.50011C19.8886 7.66355 19.9499 7.95262 19.7999 8.45576C19.6491 8.96169 19.3083 9.58884 18.7521 10.2957C17.6434 11.7047 15.8095 13.2648 13.5 14.5982Z" stroke="currentColor" stroke-width="2"/>
<path d="M13.5 9.40181C11.1905 8.06843 8.92246 7.26032 7.14791 7.00464C6.25768 6.87638 5.54415 6.89484 5.0306 7.0172C4.51988 7.13888 4.30015 7.33645 4.2058 7.49989C4.11144 7.66332 4.0502 7.95239 4.20018 8.45554C4.35099 8.96147 4.69176 9.58862 5.24796 10.2955C6.35665 11.7044 8.19053 13.2646 10.5 14.598C12.8095 15.9314 15.0776 16.7395 16.8521 16.9951C17.7424 17.1234 18.4559 17.1049 18.9694 16.9826C19.4802 16.8609 19.6999 16.6633 19.7943 16.4999C19.8886 16.3365 19.9499 16.0474 19.7999 15.5442C19.6491 15.0383 19.3083 14.4112 18.7521 13.7043C17.6434 12.2953 15.8095 10.7352 13.5 9.40181Z" stroke="currentColor" stroke-width="2"/>
</svg>
