<svg width="16" height="16" viewBox="0 0 16 16" fill="none" xmlns="http://www.w3.org/2000/svg">
<path d="M12.25 8.49259L7.12135 13.6213C6.55874 14.1839 5.79567 14.4999 5.00002 14.4999C4.20436 14.4999 3.4413 14.1839 2.87869 13.6213C2.31607 13.0586 2 12.2956 2 11.4999C2 10.7043 2.31607 9.9412 2.87869 9.37859L10.172 2.08526C10.3578 1.89957 10.5783 1.75229 10.821 1.65183C11.0637 1.55137 11.3238 1.49969 11.5865 1.49976C11.8492 1.49982 12.1092 1.55161 12.3519 1.65219C12.5945 1.75277 12.815 1.90015 13.0007 2.08593C13.1864 2.2717 13.3337 2.49223 13.4341 2.73493C13.5346 2.97762 13.5862 3.23773 13.5862 3.5004C13.5861 3.76306 13.5343 4.02314 13.4338 4.26579C13.3332 4.50844 13.1858 4.7289 13 4.91459L5.70135 12.2133M5.70735 12.2066L5.70068 12.2133M9.50002 5.58593L4.29335 10.7926C4.11023 10.9804 4.00823 11.2326 4.00933 11.4949C4.01042 11.7572 4.11453 12.0086 4.29922 12.1948C4.4839 12.3811 4.73437 12.4873 4.99665 12.4906C5.25893 12.494 5.51201 12.3941 5.70135 12.2126" stroke="#01559B" stroke-width="1.5" stroke-linecap="round" stroke-linejoin="round"/>
</svg>
