<svg width="24" height="24" viewBox="0 0 24 24" fill="none" xmlns="http://www.w3.org/2000/svg">
<path fill-rule="evenodd" clip-rule="evenodd" d="M12 2C8.6863 2 6.00001 4.68629 6.00001 8V9.83098C6.00001 11.2503 5.61428 12.6429 4.88407 13.8599L4.33066 14.7823C3.9636 15.3941 3.78007 15.7 3.7675 15.9497C3.74804 16.3366 3.95374 16.6999 4.2955 16.8823C4.51615 17 4.87287 17 5.58631 17H18.4138C19.1272 17 19.4839 17 19.7046 16.8823C20.0463 16.6999 20.252 16.3366 20.2326 15.9497C20.22 15.7 20.0365 15.3941 19.6694 14.7823L19.116 13.8599C18.3857 12.6429 18 11.2503 18 9.83095V9.31701C18 9.15273 18 9.07059 17.9532 9.02622C17.9064 8.98185 17.8163 8.98668 17.6363 8.99635C17.5912 8.99877 17.5458 9 17.5001 9C16.1193 9 15.0001 7.88071 15.0001 6.5C15.0001 5.58144 15.4954 4.77858 16.2336 4.34403C16.4107 4.23979 16.4993 4.18767 16.5092 4.11576C16.5191 4.04385 16.4568 3.97881 16.3321 3.84874C15.24 2.70938 13.7029 2 12 2Z" fill="currentColor" fill-opacity="0.24"/>
<circle cx="17.5" cy="6.5" r="1.5" fill="currentColor"/>
<path d="M14.35 18C14.4328 18 14.5007 18.0673 14.493 18.1498C14.4484 18.6254 14.1923 19.0746 13.7678 19.4142C13.2989 19.7893 12.663 20 12 20C11.337 20 10.7011 19.7893 10.2322 19.4142C9.80772 19.0746 9.55165 18.6254 9.50702 18.1498C9.49928 18.0673 9.56716 18 9.65 18L12 18L14.35 18Z" fill="currentColor"/>
</svg>
