<svg width="24" height="24" viewBox="0 0 24 24" fill="none" xmlns="http://www.w3.org/2000/svg">
<path d="M5 12H19V16C19 17.8856 19 18.8284 18.4142 19.4142C17.8284 20 16.8856 20 15 20H9C7.11438 20 6.17157 20 5.58579 19.4142C5 18.8284 5 17.8856 5 16V12Z" fill="currentColor"/>
<path fill-rule="evenodd" clip-rule="evenodd" d="M2.81538 7.8154L5.00008 10.0001V11.0001H6.20008H17.8001H19.0001V10.0001L21.1848 7.8154C21.6151 7.38509 21.5645 6.67342 21.0777 6.3083L18.5661 4.42461C18.2269 4.17022 17.7642 4.15738 17.4114 4.39256L15.0001 6.0001H9.00008L6.58876 4.39256C6.23599 4.15738 5.77325 4.17022 5.43406 4.42461L2.92248 6.3083C2.43564 6.67342 2.38507 7.38509 2.81538 7.8154ZM8.60008 7.2001H15.4001L17.3501 9.8001H6.65008L8.60008 7.2001Z" fill="currentColor" fill-opacity="0.24"/>
</svg>
