<svg width="24" height="24" viewBox="0 0 24 24" fill="none" xmlns="http://www.w3.org/2000/svg">
<path fill-rule="evenodd" clip-rule="evenodd" d="M8.97866 6.14474C7.65671 5.55724 5.99601 5.85844 5.00161 7.14011L4.69226 7.53883C3.3632 9.25183 3.5551 11.6947 5.13534 13.1791L12 19.6277L18.8646 13.1791C20.4449 11.6947 20.6368 9.25183 19.3077 7.53883L18.9984 7.1401C17.8194 5.62059 15.704 5.47837 14.3251 6.56443L13.0876 4.99323C15.2841 3.26329 18.6771 3.46337 20.5785 5.91411L20.8879 6.31283C22.8493 8.84089 22.5661 12.446 20.234 14.6368L13.2814 21.1681C13.2748 21.1742 13.2681 21.1805 13.2613 21.1869C13.1598 21.2824 13.0374 21.3975 12.9198 21.488C12.781 21.5949 12.5726 21.73 12.2888 21.7857C12.0981 21.8231 11.9019 21.8231 11.7111 21.7857C11.4274 21.73 11.219 21.5949 11.0802 21.488C10.9626 21.3975 10.8402 21.2824 10.7386 21.1869C10.7318 21.1805 10.7252 21.1742 10.7186 21.1681L3.76599 14.6368C1.43387 12.446 1.15066 8.8409 3.11209 6.31284L3.90217 6.92583L3.11209 6.31284L3.42144 5.91411C5.37666 3.39405 8.90893 3.25288 11.0977 5.14624L11.8206 5.77154L11.2286 6.52193L10.1929 7.83469C9.84628 8.27401 9.65376 8.5218 9.54365 8.71041C9.54221 8.71287 9.54081 8.71528 9.53945 8.71764C9.54156 8.71937 9.54373 8.72113 9.54594 8.72291C9.71577 8.86024 9.98364 9.02368 10.4635 9.31157L11.7159 10.063C11.732 10.0727 11.748 10.0823 11.7641 10.0919C12.1444 10.32 12.5121 10.5405 12.789 10.7629C13.1003 11.0127 13.4207 11.3593 13.5375 11.8788C13.6543 12.3984 13.5131 12.8488 13.3388 13.2078C13.1837 13.5273 12.9458 13.8839 12.6997 14.2529C12.6894 14.2685 12.679 14.284 12.6686 14.2996L11.8321 15.5544L10.168 14.445L11.0045 13.1902C11.2936 12.7565 11.4517 12.5154 11.5397 12.3342C11.5408 12.3319 11.5419 12.3296 11.543 12.3273C11.5411 12.3257 11.5391 12.3241 11.537 12.3225C11.38 12.1964 11.1339 12.0462 10.6869 11.778L9.43447 11.0266C9.41756 11.0164 9.40066 11.0063 9.38379 10.9962C8.97374 10.7502 8.58098 10.5147 8.28843 10.2781C7.96172 10.014 7.62359 9.64327 7.52173 9.08732C7.41988 8.53138 7.60462 8.06489 7.81645 7.70205C8.00613 7.37715 8.28987 7.01764 8.5861 6.64231C8.59828 6.62687 8.61049 6.61141 8.6227 6.59592L8.97866 6.14474ZM9.45433 8.63829C9.45436 8.63829 9.45478 8.6388 9.4555 8.63982C9.45467 8.63879 9.45431 8.63828 9.45433 8.63829ZM9.48855 8.82018C9.48822 8.82138 9.48802 8.82201 9.488 8.82202L9.48855 8.82018Z" fill="currentColor"/>
</svg>
