<svg width="24" height="24" viewBox="0 0 24 24" fill="none" xmlns="http://www.w3.org/2000/svg">
<path fill-rule="evenodd" clip-rule="evenodd" d="M10.658 5.60886L8.50001 9L12.5 12.5L11.5 15L15 12L12 8.5L14 6L13.5505 5.43806C15.2875 4.09704 17.8257 4.09777 19.5581 5.66029C21.9154 7.78648 21.8727 11.4985 19.4672 13.57L12.4855 19.582C12.3351 19.7115 12.2599 19.7763 12.178 19.8074C12.0633 19.8511 11.9366 19.8511 11.822 19.8074C11.7401 19.7763 11.6649 19.7115 11.5145 19.582L11.5145 19.582L4.5328 13.57C2.12726 11.4985 2.08459 7.78648 4.44188 5.66029C6.24492 4.03402 8.92091 4.09958 10.658 5.60886Z" fill="currentColor" fill-opacity="0.24"/>
<path fill-rule="evenodd" clip-rule="evenodd" d="M9.73607 5.99211C8.15652 4.94509 5.89715 5.17036 4.60663 6.8337L4.29727 7.23242C2.81012 9.14919 3.02485 11.8826 4.79305 13.5436L11.7457 20.0749C11.8727 20.1942 11.9419 20.2585 11.9955 20.2997C11.9971 20.301 11.9986 20.3021 12 20.3032C12.0015 20.3021 12.003 20.301 12.0046 20.2997C12.0581 20.2585 12.1274 20.1942 12.2544 20.0749L19.207 13.5436C20.9752 11.8826 21.19 9.14919 19.7028 7.23242L19.3935 6.8337C18.0339 5.08138 15.5991 4.92469 14.0157 6.17172L13.397 5.38612C15.3891 3.81715 18.4627 4.00277 20.1835 6.2207L20.4929 6.61942C22.2962 8.94372 22.0359 12.2583 19.8917 14.2725L12.9391 20.8037L12.9252 20.8168C12.8175 20.918 12.7121 21.0171 12.6148 21.092C12.5066 21.1753 12.3698 21.2604 12.1926 21.2951C12.0654 21.3201 11.9346 21.3201 11.8075 21.2951C11.6303 21.2604 11.4935 21.1753 11.3853 21.092C11.288 21.0171 11.1826 20.918 11.0749 20.8168L11.061 20.8037L4.10838 14.2725C1.96423 12.2583 1.70385 8.94372 3.50719 6.61943L3.81654 6.2207C5.5861 3.93994 8.78614 3.80782 10.7707 5.52448L11.1321 5.83713L10.8361 6.21232L9.80039 7.52509C9.46311 7.9526 9.24386 8.23239 9.1119 8.45841C8.98712 8.67215 8.98705 8.76155 8.99723 8.81709C9.0074 8.87262 9.03916 8.9562 9.23161 9.11181C9.43513 9.27637 9.73933 9.46025 10.2063 9.74041L11.4587 10.4919L11.4878 10.5093C11.8851 10.7477 12.2264 10.9524 12.4761 11.1529C12.7431 11.3672 12.9678 11.6244 13.0497 11.9886C13.1316 12.3528 13.0386 12.6815 12.8891 12.9895C12.7492 13.2775 12.5284 13.6087 12.2714 13.9942L12.2526 14.0224L11.4161 15.2771L10.584 14.7224L11.4206 13.4677C11.7017 13.046 11.8831 12.7718 11.9895 12.5527C12.0896 12.3467 12.0861 12.2616 12.0741 12.208C12.062 12.1544 12.0287 12.0761 11.8501 11.9327C11.6602 11.7802 11.3788 11.6101 10.9442 11.3494L9.69178 10.5979L9.66139 10.5797C9.23332 10.3229 8.86752 10.1034 8.60286 9.88942C8.3209 9.66143 8.0849 9.38645 8.0136 8.9973C7.9423 8.60816 8.06549 8.26737 8.2483 7.95423C8.4199 7.66031 8.68413 7.32543 8.99334 6.93354L9.0153 6.9057L9.73607 5.99211Z" fill="currentColor"/>
</svg>
