<svg width="24" height="24" viewBox="0 0 24 24" fill="none" xmlns="http://www.w3.org/2000/svg">
<path fill-rule="evenodd" clip-rule="evenodd" d="M10.0558 4.23112L8 8L12.5 12.5L11.5 15L15 12L11 8L12.3513 6.31322C12.4237 6.25671 12.4844 6.18008 12.525 6.08333C13.8648 2.89335 18.1316 2.30249 20.2879 5.00835L20.6761 5.49557C22.532 7.82447 22.215 11.2038 19.9584 13.147L12.5681 19.5108L12.5681 19.5108C12.3387 19.7084 12.224 19.8071 12.0914 19.8318C12.031 19.843 11.969 19.843 11.9086 19.8318C11.7759 19.8071 11.6612 19.7084 11.4319 19.5108L11.4319 19.5108L4.04157 13.147C1.785 11.2038 1.46802 7.82448 3.32386 5.49557L3.71211 5.00836C5.34547 2.95865 8.18991 2.80065 10.0558 4.23112Z" fill="currentColor"/>
</svg>
