<svg width="383" height="272" viewBox="0 0 383 272" fill="none" xmlns="http://www.w3.org/2000/svg">
    <g opacity="0.85">
    <path d="M96.8801 238.23H37.3801L-63.8299 339.44V365.46L-227.92 529.55" stroke="url(#paint0_linear_5_36279)" stroke-width="0.51" stroke-miterlimit="10"/>
    <path d="M-73.6099 304.31L90.4801 140.22V114.2L176.71 27.9099H235.8H375.47" stroke="url(#paint1_linear_5_36279)" stroke-width="0.51" stroke-miterlimit="10"/>
    <path d="M292.11 54.1599H165.28L128 91.4399V112.57L83.2599 157.31V192.11L54.0499 221.31H-49.1001" stroke="url(#paint2_linear_5_36279)" stroke-width="0.51" stroke-miterlimit="10"/>
    <path d="M126.09 198.73H104.95L49.7202 253.92V275.05L4.98024 319.79V354.59L-21.7598 381.33" stroke="url(#paint3_linear_5_36279)" stroke-width="0.51" stroke-miterlimit="10"/>
    <path d="M243.59 6.90039L186.19 64.3004H124.45L58.04 130.71H0.509949L-23.11 107.09L-63.5601 147.55V224.25" stroke="url(#paint4_linear_5_36279)" stroke-width="0.51" stroke-miterlimit="10"/>
    <path d="M132.09 196.24C131.597 195.755 130.972 195.426 130.292 195.294C129.613 195.163 128.91 195.235 128.271 195.503C127.633 195.77 127.088 196.22 126.704 196.796C126.321 197.372 126.116 198.048 126.116 198.74C126.116 199.433 126.321 200.109 126.704 200.685C127.088 201.261 127.633 201.711 128.271 201.978C128.91 202.246 129.613 202.318 130.292 202.187C130.972 202.055 131.597 201.726 132.09 201.24C132.42 200.913 132.682 200.524 132.861 200.095C133.04 199.666 133.132 199.205 133.132 198.74C133.132 198.276 133.04 197.815 132.861 197.386C132.682 196.957 132.42 196.568 132.09 196.24V196.24Z" stroke="url(#paint5_linear_5_36279)" stroke-width="0.51" stroke-miterlimit="10"/>
    <path d="M102.93 235.92C102.437 235.434 101.812 235.105 101.132 234.974C100.453 234.842 99.7499 234.915 99.1115 235.182C98.4731 235.449 97.928 235.899 97.5446 236.475C97.1611 237.051 96.9565 237.728 96.9565 238.42C96.9565 239.112 97.1611 239.789 97.5446 240.365C97.928 240.941 98.4731 241.391 99.1115 241.658C99.7499 241.925 100.453 241.997 101.132 241.866C101.812 241.735 102.437 241.406 102.93 240.92C103.26 240.593 103.523 240.203 103.701 239.774C103.88 239.345 103.972 238.885 103.972 238.42C103.972 237.955 103.88 237.495 103.701 237.066C103.523 236.637 103.26 236.247 102.93 235.92V235.92Z" stroke="url(#paint6_linear_5_36279)" stroke-width="0.51" stroke-miterlimit="10"/>
    <path d="M298.08 51.5491C297.587 51.0633 296.962 50.7341 296.282 50.6028C295.603 50.4715 294.9 50.544 294.261 50.8112C293.623 51.0783 293.078 51.5282 292.694 52.1043C292.311 52.6804 292.106 53.357 292.106 54.0491C292.106 54.7411 292.311 55.4177 292.694 55.9938C293.078 56.5699 293.623 57.0198 294.261 57.287C294.9 57.5541 295.603 57.6266 296.282 57.4953C296.962 57.364 297.587 57.0348 298.08 56.5491C298.41 56.2218 298.672 55.8324 298.851 55.4033C299.03 54.9742 299.122 54.5139 299.122 54.0491C299.122 53.5842 299.03 53.1239 298.851 52.6948C298.672 52.2657 298.41 51.8763 298.08 51.5491V51.5491Z" stroke="url(#paint7_linear_5_36279)" stroke-width="0.51" stroke-miterlimit="10"/>
    <path d="M381.48 25.4299C380.986 24.9408 380.359 24.6086 379.677 24.4753C378.995 24.342 378.289 24.4135 377.648 24.6808C377.006 24.9482 376.458 25.3994 376.073 25.9775C375.688 26.5557 375.482 27.2351 375.482 27.9299C375.482 28.6248 375.688 29.3041 376.073 29.8823C376.458 30.4605 377.006 30.9116 377.648 31.179C378.289 31.4463 378.995 31.5178 379.677 31.3845C380.359 31.2512 380.986 30.9191 381.48 30.4299C381.811 30.1033 382.074 29.7142 382.254 29.285C382.434 28.8558 382.526 28.3952 382.526 27.9299C382.526 27.4647 382.434 27.0041 382.254 26.5749C382.074 26.1457 381.811 25.7565 381.48 25.4299V25.4299Z" stroke="url(#paint8_linear_5_36279)" stroke-width="0.51" stroke-miterlimit="10"/>
    <path d="M248.51 2.02C248.017 1.53083 247.389 1.19868 246.707 1.06538C246.025 0.932079 245.319 1.0036 244.678 1.27093C244.037 1.53826 243.489 1.98944 243.103 2.56763C242.718 3.14582 242.512 3.82514 242.512 4.52C242.512 5.21486 242.718 5.89418 243.103 6.47237C243.489 7.05055 244.037 7.50174 244.678 7.76907C245.319 8.0364 246.025 8.10793 246.707 7.97463C247.389 7.84133 248.017 7.50916 248.51 7.02C248.84 6.69274 249.102 6.30332 249.281 5.87423C249.46 5.44514 249.552 4.98487 249.552 4.52C249.552 4.05513 249.46 3.59486 249.281 3.16577C249.102 2.73667 248.84 2.34726 248.51 2.02V2.02Z" stroke="url(#paint9_linear_5_36279)" stroke-width="0.51" stroke-miterlimit="10"/>
    </g>
    <defs>
    <linearGradient id="paint0_linear_5_36279" x1="-65.6099" y1="529.73" x2="-65.6099" y2="237.98" gradientUnits="userSpaceOnUse">
    <stop stop-color="#00ADEE"/>
    <stop offset="0.15" stop-color="#0087CA"/>
    <stop offset="0.29" stop-color="#006CAF"/>
    <stop offset="0.41" stop-color="#005CA0"/>
    <stop offset="0.5" stop-color="#00569A"/>
    <stop offset="0.59" stop-color="#005CA0"/>
    <stop offset="0.71" stop-color="#006CAF"/>
    <stop offset="0.85" stop-color="#0087CA"/>
    <stop offset="1" stop-color="#00AEEF"/>
    </linearGradient>
    <linearGradient id="paint1_linear_5_36279" x1="150.84" y1="304.49" x2="150.84" y2="27.6599" gradientUnits="userSpaceOnUse">
    <stop stop-color="#00ADEE"/>
    <stop offset="0.15" stop-color="#0087CA"/>
    <stop offset="0.29" stop-color="#006CAF"/>
    <stop offset="0.41" stop-color="#005CA0"/>
    <stop offset="0.5" stop-color="#00569A"/>
    <stop offset="0.59" stop-color="#005CA0"/>
    <stop offset="0.71" stop-color="#006CAF"/>
    <stop offset="0.85" stop-color="#0087CA"/>
    <stop offset="1" stop-color="#00AEEF"/>
    </linearGradient>
    <linearGradient id="paint2_linear_5_36279" x1="121.5" y1="221.56" x2="121.5" y2="53.8999" gradientUnits="userSpaceOnUse">
    <stop stop-color="#00ADEE"/>
    <stop offset="0.15" stop-color="#0087CA"/>
    <stop offset="0.29" stop-color="#006CAF"/>
    <stop offset="0.41" stop-color="#005CA0"/>
    <stop offset="0.5" stop-color="#00569A"/>
    <stop offset="0.59" stop-color="#005CA0"/>
    <stop offset="0.71" stop-color="#006CAF"/>
    <stop offset="0.85" stop-color="#0087CA"/>
    <stop offset="1" stop-color="#00AEEF"/>
    </linearGradient>
    <linearGradient id="paint3_linear_5_36279" x1="52.0702" y1="381.51" x2="52.0702" y2="198.47" gradientUnits="userSpaceOnUse">
    <stop stop-color="#00ADEE"/>
    <stop offset="0.15" stop-color="#0087CA"/>
    <stop offset="0.29" stop-color="#006CAF"/>
    <stop offset="0.41" stop-color="#005CA0"/>
    <stop offset="0.5" stop-color="#00569A"/>
    <stop offset="0.59" stop-color="#005CA0"/>
    <stop offset="0.71" stop-color="#006CAF"/>
    <stop offset="0.85" stop-color="#0087CA"/>
    <stop offset="1" stop-color="#00AEEF"/>
    </linearGradient>
    <linearGradient id="paint4_linear_5_36279" x1="89.9699" y1="224.25" x2="89.9699" y2="6.72039" gradientUnits="userSpaceOnUse">
    <stop stop-color="#00ADEE"/>
    <stop offset="0.15" stop-color="#0087CA"/>
    <stop offset="0.29" stop-color="#006CAF"/>
    <stop offset="0.41" stop-color="#005CA0"/>
    <stop offset="0.5" stop-color="#00569A"/>
    <stop offset="0.59" stop-color="#005CA0"/>
    <stop offset="0.71" stop-color="#006CAF"/>
    <stop offset="0.85" stop-color="#0087CA"/>
    <stop offset="1" stop-color="#00AEEF"/>
    </linearGradient>
    <linearGradient id="paint5_linear_5_36279" x1="129.61" y1="202.49" x2="129.61" y2="194.96" gradientUnits="userSpaceOnUse">
    <stop stop-color="#00ADEE"/>
    <stop offset="0.15" stop-color="#0087CA"/>
    <stop offset="0.29" stop-color="#006CAF"/>
    <stop offset="0.41" stop-color="#005CA0"/>
    <stop offset="0.5" stop-color="#00569A"/>
    <stop offset="0.59" stop-color="#005CA0"/>
    <stop offset="0.71" stop-color="#006CAF"/>
    <stop offset="0.85" stop-color="#0087CA"/>
    <stop offset="1" stop-color="#00AEEF"/>
    </linearGradient>
    <linearGradient id="paint6_linear_5_36279" x1="100.4" y1="242.16" x2="100.4" y2="234.63" gradientUnits="userSpaceOnUse">
    <stop stop-color="#00ADEE"/>
    <stop offset="0.15" stop-color="#0087CA"/>
    <stop offset="0.29" stop-color="#006CAF"/>
    <stop offset="0.41" stop-color="#005CA0"/>
    <stop offset="0.5" stop-color="#00569A"/>
    <stop offset="0.59" stop-color="#005CA0"/>
    <stop offset="0.71" stop-color="#006CAF"/>
    <stop offset="0.85" stop-color="#0087CA"/>
    <stop offset="1" stop-color="#00AEEF"/>
    </linearGradient>
    <linearGradient id="paint7_linear_5_36279" x1="295.6" y1="57.7991" x2="295.6" y2="50.2691" gradientUnits="userSpaceOnUse">
    <stop stop-color="#00ADEE"/>
    <stop offset="0.15" stop-color="#0087CA"/>
    <stop offset="0.29" stop-color="#006CAF"/>
    <stop offset="0.41" stop-color="#005CA0"/>
    <stop offset="0.5" stop-color="#00569A"/>
    <stop offset="0.59" stop-color="#005CA0"/>
    <stop offset="0.71" stop-color="#006CAF"/>
    <stop offset="0.85" stop-color="#0087CA"/>
    <stop offset="1" stop-color="#00AEEF"/>
    </linearGradient>
    <linearGradient id="paint8_linear_5_36279" x1="378.99" y1="31.6799" x2="378.99" y2="24.1399" gradientUnits="userSpaceOnUse">
    <stop stop-color="#00ADEE"/>
    <stop offset="0.15" stop-color="#0087CA"/>
    <stop offset="0.29" stop-color="#006CAF"/>
    <stop offset="0.41" stop-color="#005CA0"/>
    <stop offset="0.5" stop-color="#00569A"/>
    <stop offset="0.59" stop-color="#005CA0"/>
    <stop offset="0.71" stop-color="#006CAF"/>
    <stop offset="0.85" stop-color="#0087CA"/>
    <stop offset="1" stop-color="#00AEEF"/>
    </linearGradient>
    <linearGradient id="paint9_linear_5_36279" x1="246.03" y1="8.28" x2="246.03" y2="0.740002" gradientUnits="userSpaceOnUse">
    <stop stop-color="#00ADEE"/>
    <stop offset="0.15" stop-color="#0087CA"/>
    <stop offset="0.29" stop-color="#006CAF"/>
    <stop offset="0.41" stop-color="#005CA0"/>
    <stop offset="0.5" stop-color="#00569A"/>
    <stop offset="0.59" stop-color="#005CA0"/>
    <stop offset="0.71" stop-color="#006CAF"/>
    <stop offset="0.85" stop-color="#0087CA"/>
    <stop offset="1" stop-color="#00AEEF"/>
    </linearGradient>
    </defs>
    </svg>
    