<svg width="24" height="24" viewBox="0 0 24 24" fill="none" xmlns="http://www.w3.org/2000/svg">
<path fill-rule="evenodd" clip-rule="evenodd" d="M9 19.9909C9 19.9856 8.99549 19.9814 8.9902 19.9818C8.82838 19.9939 8.66491 20 8.5 20C4.91015 20 2 17.0899 2 13.5C2 9.91015 4.91015 7 8.5 7C11.1608 7 13.4482 8.59879 14.4539 10.8881C14.7306 11.518 15.312 12 16 12C18.2091 12 20 13.7909 20 16C20 18.2091 18.2091 20 16 20H9.00911C9.00408 20 9 19.9959 9 19.9909Z" fill="currentColor"/>
<path fill-rule="evenodd" clip-rule="evenodd" d="M19.4604 11.7249C20.9471 11.1415 21.9998 9.69369 21.9998 8C21.9998 5.79086 20.2089 4 17.9998 4C15.8911 4 14.1635 5.63165 14.0107 7.70128C14.7758 8.42868 15.3968 9.30566 15.827 10.2848C15.8692 10.381 15.9277 10.4467 15.9719 10.4798C15.9887 10.4924 15.9997 10.4979 16.0051 10.5C17.3144 10.5013 18.5165 10.96 19.4604 11.7249ZM16.0092 10.5012C16.0092 10.5013 16.0083 10.5011 16.0063 10.5005C16.0082 10.5007 16.0091 10.5011 16.0092 10.5012Z" fill="currentColor"/>
</svg>
