<svg width="24" height="24" viewBox="0 0 24 24" fill="none" xmlns="http://www.w3.org/2000/svg">
<circle cx="12.2746" cy="3.74857" r="2.81705" fill="currentColor"/>
<path d="M9.19005 12.0865V12.2842C9.19005 12.4313 9.05625 12.5426 8.91237 12.5122C8.15688 12.3527 7.69432 12.1575 7.07126 11.6573C7.01666 11.6134 6.9854 11.5468 6.9854 11.4767V9.87253C6.89004 8.06063 9.10723 6.95255 10.3174 6.59347C10.3797 6.57499 10.4468 6.58544 10.503 6.61812C12.1249 7.56215 13.5135 7.07518 14.1078 6.64656C14.1743 6.59858 14.2611 6.58175 14.3385 6.60896C17.7407 7.80568 17.7996 10.4176 17.3962 11.5873C17.3118 11.8407 16.3107 12.2338 15.6177 12.4681C15.4675 12.5189 15.3141 12.406 15.3141 12.2474V11.358C15.3141 11.11 15.0939 11.0757 15.0419 11.3182C14.9769 11.6217 14.9074 12.0005 14.8393 12.4628C14.8295 12.529 14.793 12.5889 14.7352 12.6225C13.5621 13.3036 11.1376 12.9157 9.93066 12.6014C9.85075 12.5806 9.78893 12.5184 9.76683 12.4388L9.65149 12.0236C9.57829 11.7601 9.19005 11.813 9.19005 12.0865Z" fill="currentColor"/>
<path d="M0.929199 20.5266V13.2894C0.929199 13.1455 1.06756 13.042 1.20564 13.0826L4.40957 14.0258C4.50905 14.0551 4.57358 14.1511 4.56316 14.2543L3.92797 20.5483C3.91686 20.6584 3.82417 20.7422 3.7135 20.7422H1.14476C1.02571 20.7422 0.929199 20.6457 0.929199 20.5266Z" fill="currentColor"/>
<path d="M4.59359 19.4061L4.95314 14.9814C4.96056 14.8901 5.0249 14.8135 5.11355 14.7903L7.77588 14.0953C7.82299 14.083 7.87287 14.0871 7.91741 14.1067L11.5006 15.6891L15.6362 17.0256C15.743 17.0602 15.8054 17.1708 15.7797 17.2801L15.3944 18.9181C15.367 19.0346 15.2499 19.1064 15.1336 19.0782L8.92063 17.5671C8.80588 17.5392 8.69005 17.6088 8.66083 17.7233L8.57817 18.0469C8.54739 18.1674 8.62474 18.2889 8.74698 18.312L15.2735 19.5461C15.3197 19.5548 15.3675 19.5482 15.4095 19.5273L16.1499 19.1592C16.1888 19.1398 16.2209 19.1092 16.2421 19.0713L16.6535 18.3349C16.6772 18.2925 16.6859 18.2432 16.6781 18.1952L16.5252 17.2544C16.5092 17.156 16.5627 17.0596 16.6545 17.021L21.7042 14.9026C21.8045 14.8605 21.9203 14.8997 21.9745 14.9939L22.6428 16.157C22.6999 16.2563 22.6693 16.383 22.5732 16.4453L12.5589 22.9369C12.4981 22.9763 12.4217 22.9825 12.3553 22.9536L4.72219 19.6211C4.6378 19.5843 4.58613 19.4979 4.59359 19.4061Z" fill="currentColor"/>
</svg>
