<svg width="32" height="32" viewBox="0 0 32 32" fill="none" xmlns="http://www.w3.org/2000/svg">
<circle cx="16" cy="16" r="13" fill="#00ADEF"/>
<circle cx="16" cy="16" r="15.75" stroke="#00ADEF" stroke-width="0.5"/>
<path d="M10.25 11C9.55933 11 9 11.56 9 12.25V17H17V12.25C17 11.5593 16.44 11 15.75 11H10.25ZM17 18H9V19.75C9 20.44 9.56 21 10.25 21H10.5C10.5 20.4696 10.7107 19.9609 11.0858 19.5858C11.4609 19.2107 11.9696 19 12.5 19C13.0304 19 13.5391 19.2107 13.9142 19.5858C14.2893 19.9609 14.5 20.4696 14.5 21H16.5C16.6326 21 16.7598 20.9473 16.8536 20.8536C16.9473 20.7598 17 20.6326 17 20.5V18Z" fill="white"/>
<path d="M13.5 21C13.5 20.7348 13.3946 20.4804 13.2071 20.2929C13.0196 20.1054 12.7652 20 12.5 20C12.2348 20 11.9804 20.1054 11.7929 20.2929C11.6054 20.4804 11.5 20.7348 11.5 21C11.5 21.2652 11.6054 21.5196 11.7929 21.7071C11.9804 21.8947 12.2348 22 12.5 22C12.7652 22 13.0196 21.8947 13.2071 21.7071C13.3946 21.5196 13.5 21.2652 13.5 21ZM18.5 12.5C18.3674 12.5 18.2402 12.5527 18.1464 12.6465C18.0527 12.7402 18 12.8674 18 13V20.5C18 20.558 18.01 20.6133 18.028 20.6653C18.1111 20.1728 18.3755 19.7291 18.7692 19.4217C19.1629 19.1143 19.6574 18.9653 20.1554 19.0041C20.6534 19.0429 21.1189 19.2666 21.4603 19.6313C21.8016 19.996 21.9942 20.4752 22 20.9747C22.5687 20.858 23.0147 20.3513 22.976 19.7193C22.8269 17.2783 21.9615 14.9353 20.488 12.9833C20.3732 12.8324 20.225 12.7102 20.0549 12.6263C19.8848 12.5424 19.6976 12.4992 19.508 12.5H18.5Z" fill="white"/>
<path d="M21 21C21 20.7348 20.8946 20.4804 20.7071 20.2929C20.5196 20.1054 20.2652 20 20 20C19.7348 20 19.4804 20.1054 19.2929 20.2929C19.1054 20.4804 19 20.7348 19 21C19 21.2652 19.1054 21.5196 19.2929 21.7071C19.4804 21.8946 19.7348 22 20 22C20.2652 22 20.5196 21.8946 20.7071 21.7071C20.8946 21.5196 21 21.2652 21 21Z" fill="white"/>
</svg>
