<svg width="30" height="30" viewBox="0 0 30 30" fill="none" xmlns="http://www.w3.org/2000/svg">
<path d="M4.3846 5.76929C3.10952 5.76929 2.0769 6.80313 2.0769 8.07698V16.8462H16.8461V8.07698C16.8461 6.8019 15.8123 5.76929 14.5384 5.76929H4.3846ZM16.8461 18.6924H2.0769V21.9231C2.0769 23.197 3.11075 24.2308 4.3846 24.2308H4.84614C4.84614 23.2516 5.23515 22.3124 5.92759 21.62C6.62003 20.9275 7.55918 20.5385 8.53844 20.5385C9.5177 20.5385 10.4569 20.9275 11.1493 21.62C11.8417 22.3124 12.2308 23.2516 12.2308 24.2308H15.9231C16.1679 24.2308 16.4027 24.1336 16.5758 23.9605C16.7489 23.7874 16.8461 23.5526 16.8461 23.3077V18.6924Z" fill="currentColor"/>
<path d="M10.3844 24.2307C10.3844 23.741 10.1899 23.2715 9.84372 22.9252C9.4975 22.579 9.02792 22.3845 8.53829 22.3845C8.04866 22.3845 7.57909 22.579 7.23286 22.9252C6.88664 23.2715 6.69214 23.741 6.69214 24.2307C6.69214 24.7203 6.88664 25.1899 7.23286 25.5361C7.57909 25.8823 8.04866 26.0768 8.53829 26.0768C9.02792 26.0768 9.4975 25.8823 9.84372 25.5361C10.1899 25.1899 10.3844 24.7203 10.3844 24.2307ZM19.6152 8.53835C19.3704 8.53835 19.1356 8.6356 18.9625 8.80871C18.7894 8.98182 18.6921 9.21661 18.6921 9.46143V23.3076C18.6921 23.4147 18.7106 23.5168 18.7438 23.6128C18.8972 22.7035 19.3854 21.8844 20.1122 21.3169C20.839 20.7493 21.752 20.4742 22.6714 20.5458C23.5908 20.6174 24.4501 21.0305 25.0803 21.7038C25.7105 22.377 26.066 23.2618 26.0768 24.1839C27.1266 23.9685 27.95 23.0331 27.8786 21.8664C27.6033 17.3597 26.0056 13.0342 23.2854 9.43066C23.0735 9.15201 22.7998 8.92638 22.4858 8.77153C22.1718 8.61669 21.8262 8.53687 21.4761 8.53835H19.6152Z" fill="currentColor"/>
<path d="M24.2306 24.2307C24.2306 23.741 24.0361 23.2715 23.6899 22.9252C23.3437 22.579 22.8741 22.3845 22.3845 22.3845C21.8949 22.3845 21.4253 22.579 21.0791 22.9252C20.7328 23.2715 20.5383 23.741 20.5383 24.2307C20.5383 24.7203 20.7328 25.1899 21.0791 25.5361C21.4253 25.8823 21.8949 26.0768 22.3845 26.0768C22.8741 26.0768 23.3437 25.8823 23.6899 25.5361C24.0361 25.1899 24.2306 24.7203 24.2306 24.2307Z" fill="currentColor"/>
</svg>
