<svg width="24" height="24" viewBox="0 0 24 24" fill="none" xmlns="http://www.w3.org/2000/svg">
<path d="M8 13L12.2277 16.3821C12.6556 16.7245 13.2793 16.6586 13.6263 16.2345L22 6" stroke="currentColor" stroke-width="1.2" stroke-linecap="round"/>
<path fill-rule="evenodd" clip-rule="evenodd" d="M10.5652 12.3677L15.4643 6.37999C15.6741 6.12352 15.6363 5.7455 15.3799 5.53567C15.1234 5.32583 14.7454 5.36363 14.5356 5.6201L9.64334 11.5995L10.5652 12.3677ZM8.03219 15.4637L7.11029 14.6954L6.14261 15.8782C6.00688 16.044 5.7645 16.0735 5.59303 15.9449L2.35994 13.52C2.09484 13.3212 1.71876 13.3749 1.51994 13.64C1.32112 13.9051 1.37484 14.2812 1.63994 14.48L4.87303 16.9049C5.55893 17.4193 6.52843 17.3016 7.07136 16.638L8.03219 15.4637Z" fill="currentColor" fill-opacity="0.24"/>
</svg>
