<svg width="24" height="24" viewBox="0 0 24 24" fill="none" xmlns="http://www.w3.org/2000/svg">
<mask id="path-1-outside-1_5_11866" maskUnits="userSpaceOnUse" x="2" y="9" width="20" height="12" fill="black">
<rect fill="white" x="2" y="9" width="20" height="12"/>
<path fill-rule="evenodd" clip-rule="evenodd" d="M6 20H12H18C19.6569 20 21 18.6569 21 17C21 15.3431 19.6569 14 18 14C17.7205 14 17.5807 14 17.483 13.9803C17.185 13.9204 17.0435 13.8288 16.8667 13.5814C16.8088 13.5004 16.7272 13.3185 16.5639 12.9548C15.7822 11.2131 14.0328 10 12 10C9.96722 10 8.21776 11.2131 7.43606 12.9548C7.27282 13.3185 7.19121 13.5004 7.13328 13.5814C6.95652 13.8288 6.81502 13.9204 6.51699 13.9803C6.41931 14 6.27954 14 6 14C4.34315 14 3 15.3431 3 17C3 18.6569 4.34315 20 6 20Z"/>
</mask>
<path fill-rule="evenodd" clip-rule="evenodd" d="M6 20H12H18C19.6569 20 21 18.6569 21 17C21 15.3431 19.6569 14 18 14C17.7205 14 17.5807 14 17.483 13.9803C17.185 13.9204 17.0435 13.8288 16.8667 13.5814C16.8088 13.5004 16.7272 13.3185 16.5639 12.9548C15.7822 11.2131 14.0328 10 12 10C9.96722 10 8.21776 11.2131 7.43606 12.9548C7.27282 13.3185 7.19121 13.5004 7.13328 13.5814C6.95652 13.8288 6.81502 13.9204 6.51699 13.9803C6.41931 14 6.27954 14 6 14C4.34315 14 3 15.3431 3 17C3 18.6569 4.34315 20 6 20Z" fill="currentColor" fill-opacity="0.24"/>
<path d="M7.43606 12.9548L6.88866 12.7091L7.43606 12.9548ZM7.13328 13.5814L6.64512 13.2326L7.13328 13.5814ZM6.51699 13.9803L6.3986 13.3921L6.51699 13.9803ZM17.483 13.9803L17.3646 14.5685L17.483 13.9803ZM16.5639 12.9548L17.1113 12.7091L16.5639 12.9548ZM16.8667 13.5814L17.3549 13.2326L16.8667 13.5814ZM12 19.4H6V20.6H12V19.4ZM18 19.4H12V20.6H18V19.4ZM20.4 17C20.4 18.3255 19.3255 19.4 18 19.4V20.6C19.9882 20.6 21.6 18.9882 21.6 17H20.4ZM18 14.6C19.3255 14.6 20.4 15.6745 20.4 17H21.6C21.6 15.0118 19.9882 13.4 18 13.4V14.6ZM17.1113 12.7091C16.2364 10.7597 14.2776 9.4 12 9.4V10.6C13.7879 10.6 15.3281 11.6665 16.0165 13.2005L17.1113 12.7091ZM12 9.4C9.72236 9.4 7.76359 10.7597 6.88866 12.7091L7.98345 13.2005C8.67194 11.6665 10.2121 10.6 12 10.6V9.4ZM6 13.4C4.01177 13.4 2.4 15.0118 2.4 17H3.6C3.6 15.6745 4.67452 14.6 6 14.6V13.4ZM2.4 17C2.4 18.9882 4.01177 20.6 6 20.6V19.4C4.67452 19.4 3.6 18.3255 3.6 17H2.4ZM6.88866 12.7091C6.80584 12.8937 6.74784 13.0228 6.70331 13.1165C6.65409 13.22 6.63936 13.2406 6.64512 13.2326L7.62143 13.9303C7.68512 13.8412 7.74017 13.7303 7.78705 13.6317C7.83862 13.5233 7.90304 13.3797 7.98345 13.2005L6.88866 12.7091ZM6 14.6C6.24415 14.6 6.46312 14.6032 6.63538 14.5685L6.3986 13.3921C6.40013 13.3918 6.38107 13.3956 6.30874 13.3978C6.23775 13.3999 6.1435 13.4 6 13.4V14.6ZM6.64512 13.2326C6.57934 13.3246 6.55126 13.3431 6.54458 13.3475C6.5379 13.3518 6.50951 13.3698 6.3986 13.3921L6.63538 14.5685C6.8225 14.5309 7.01388 14.4731 7.19664 14.3548C7.37941 14.2365 7.51046 14.0856 7.62143 13.9303L6.64512 13.2326ZM18 13.4C17.8565 13.4 17.7623 13.3999 17.6913 13.3978C17.6189 13.3956 17.5999 13.3918 17.6014 13.3921L17.3646 14.5685C17.5369 14.6032 17.7559 14.6 18 14.6V13.4ZM16.0165 13.2005C16.097 13.3797 16.1614 13.5233 16.213 13.6317C16.2598 13.7303 16.3149 13.8412 16.3786 13.9303L17.3549 13.2326C17.3606 13.2406 17.3459 13.22 17.2967 13.1165C17.2522 13.0228 17.1942 12.8937 17.1113 12.7091L16.0165 13.2005ZM17.6014 13.3921C17.4905 13.3698 17.4621 13.3518 17.4554 13.3475C17.4487 13.3431 17.4207 13.3246 17.3549 13.2326L16.3786 13.9303C16.4895 14.0856 16.6206 14.2365 16.8034 14.3548C16.9861 14.4731 17.1775 14.5309 17.3646 14.5685L17.6014 13.3921Z" fill="currentColor" fill-opacity="0.24" mask="url(#path-1-outside-1_5_11866)"/>
<path fill-rule="evenodd" clip-rule="evenodd" d="M9.4999 11.379C8.84226 11.8338 8.31438 12.4633 7.98336 13.2008L7.98019 13.2079L7.98017 13.2079C7.90124 13.3838 7.83784 13.5251 7.78695 13.6321C7.74007 13.7307 7.68503 13.8415 7.62134 13.9306C7.51036 14.0859 7.37931 14.2369 7.19654 14.3552C7.01378 14.4735 6.8224 14.5312 6.63528 14.5689C6.47662 14.6008 6.27833 14.6006 6.05724 14.6004H6.05723L5.9999 14.6004C4.67442 14.6004 3.5999 15.6749 3.5999 17.0004C3.5999 18.3258 4.67442 19.4004 5.9999 19.4004H11.9999H17.9999C19.3254 19.4004 20.3999 18.3258 20.3999 17.0004C20.3999 15.6749 19.3254 14.6004 17.9999 14.6004L17.9426 14.6004H17.9426C17.7215 14.6006 17.5232 14.6008 17.3645 14.5689C17.1774 14.5312 16.986 14.4735 16.8033 14.3552C16.6205 14.2369 16.4894 14.0859 16.3785 13.9306C16.3148 13.8415 16.2597 13.7307 16.2129 13.6321C16.1619 13.525 16.0985 13.3837 16.0195 13.2077L16.0164 13.2008C15.6854 12.4633 15.1575 11.8338 14.4999 11.379V9.98804C15.6545 10.5651 16.5815 11.5292 17.1112 12.7095C17.1941 12.894 17.2521 13.0232 17.2966 13.1168C17.3319 13.1911 17.3495 13.2227 17.3545 13.2317C17.3564 13.2352 17.3564 13.2352 17.3548 13.2329C17.4206 13.325 17.4486 13.3435 17.4553 13.3478C17.462 13.3521 17.4904 13.3702 17.6013 13.3925C17.6012 13.3925 17.6012 13.3925 17.6013 13.3925C17.603 13.3928 17.6243 13.3962 17.6912 13.3982C17.7622 13.4003 17.8564 13.4004 17.9999 13.4004C19.9881 13.4004 21.5999 15.0121 21.5999 17.0004C21.5999 18.9886 19.9881 20.6004 17.9999 20.6004H11.9999H5.9999C4.01168 20.6004 2.3999 18.9886 2.3999 17.0004C2.3999 15.0121 4.01168 13.4004 5.9999 13.4004C6.1434 13.4004 6.23765 13.4003 6.30864 13.3982C6.3755 13.3962 6.39684 13.3928 6.39848 13.3925C6.39862 13.3925 6.39862 13.3925 6.39851 13.3925C6.50941 13.3702 6.5378 13.3521 6.54448 13.3478C6.55116 13.3435 6.57924 13.325 6.64502 13.2329C6.64339 13.2352 6.6434 13.2352 6.64535 13.2317L6.64535 13.2317C6.65032 13.2227 6.66788 13.1911 6.70321 13.1168C6.74774 13.0232 6.80575 12.894 6.88856 12.7095C7.41829 11.5292 8.34533 10.5651 9.4999 9.98804V11.379Z" fill="currentColor"/>
<path d="M12 3L11.5757 2.57574L12 2.15147L12.4243 2.57574L12 3ZM12.6 13C12.6 13.3314 12.3314 13.6 12 13.6C11.6686 13.6 11.4 13.3314 11.4 13L12.6 13ZM7.57574 6.57574L11.5757 2.57574L12.4243 3.42426L8.42426 7.42426L7.57574 6.57574ZM12.4243 2.57574L16.4243 6.57574L15.5757 7.42426L11.5757 3.42426L12.4243 2.57574ZM12.6 3L12.6 13L11.4 13L11.4 3L12.6 3Z" fill="currentColor"/>
</svg>
