<svg width="24" height="24" viewBox="0 0 24 24" fill="none" xmlns="http://www.w3.org/2000/svg">
<path fill-rule="evenodd" clip-rule="evenodd" d="M16 22.5C18.4853 22.5 20.5 20.4853 20.5 18C20.5 15.5147 18.4853 13.5 16 13.5C13.5147 13.5 11.5 15.5147 11.5 18C11.5 20.4853 13.5147 22.5 16 22.5ZM15.928 19.8567L18.428 16.8567L17.572 16.1433L15.4626 18.6746L14.394 17.606L13.606 18.394L15.106 19.894L15.5374 20.3254L15.928 19.8567Z" fill="white"/>
<path fill-rule="evenodd" clip-rule="evenodd" d="M13 7V2H11C8.17157 2 6.75736 2 5.87868 2.87868C5 3.75736 5 5.17157 5 8V16C5 18.8284 5 20.2426 5.87868 21.1213C6.75736 22 8.17157 22 11 22H12.5995C11.4678 21.037 10.75 19.6023 10.75 18C10.75 15.1005 13.1005 12.75 16 12.75C18.3394 12.75 20.3215 14.2802 20.9999 16.3943C21 16.266 21 16.1346 21 16V10H16L15.9456 10H15.9456H15.9456C15.5215 10.0001 15.1094 10.0002 14.7695 9.95447C14.3863 9.90295 13.949 9.77743 13.5858 9.41421C13.2226 9.051 13.097 8.61372 13.0455 8.23052C12.9998 7.8906 12.9999 7.47848 13 7.05441L13 7ZM15 7V2.00462C15.4116 2.01481 15.684 2.04749 15.9369 2.15224C16.3045 2.30448 16.5935 2.59351 17.1716 3.17157L19.8284 5.82843C20.4065 6.40649 20.6955 6.69552 20.8478 7.06306C20.9525 7.31595 20.9852 7.58836 20.9954 8H16C15.5003 8 15.2262 7.99788 15.036 7.97231L15.0287 7.97131L15.0277 7.96402C15.0021 7.77383 15 7.49967 15 7Z" fill="currentColor"/>
</svg>
