<svg width="24" height="24" viewBox="0 0 24 24" fill="none" xmlns="http://www.w3.org/2000/svg">
<path d="M18.5 12C18.5 15.5899 15.5899 18.5 12 18.5C8.41015 18.5 5.5 15.5899 5.5 12C5.5 6.36645 11.2303 2.93685 11.9302 2.53894C11.9741 2.51402 12.0259 2.51402 12.0698 2.53894C12.7697 2.93685 18.5 6.36645 18.5 12Z" stroke="currentColor" stroke-width="2" stroke-linejoin="round"/>
<path d="M15.4992 11.9216L14.4994 11.9419L14.4994 11.9435L15.4992 11.9216ZM8.50006 12.0002L9.50006 12.0001L8.50006 12.0002ZM12.0859 6.56395L12.6902 5.76719L12.0859 6.56395ZM11.3099 5.76721C11.0097 5.99483 10.0865 6.72917 9.22933 7.78452C8.3881 8.82021 7.50001 10.3 7.5 12.0001L9.5 12.0001C9.50001 10.9805 10.0503 9.94602 10.7817 9.04547C11.4973 8.16458 12.2811 7.54072 12.5184 7.36073L11.3099 5.76721ZM16.499 11.9013C16.465 10.2274 15.5799 8.77335 14.7457 7.75377C13.8958 6.71509 12.9877 5.99277 12.6902 5.76719L11.4816 7.36071C11.7164 7.53876 12.4877 8.15245 13.1978 9.02029C13.9235 9.90722 14.4789 10.9301 14.4994 11.9419L16.499 11.9013ZM14.4994 11.9435C14.4999 11.9622 14.5001 11.981 14.5001 11.9999H16.5001C16.5001 11.9664 16.4997 11.933 16.499 11.8996L14.4994 11.9435ZM14.5001 11.9999C14.5001 13.3806 13.3808 14.4999 12.0001 14.4999V16.4999C14.4853 16.4999 16.5001 14.4852 16.5001 11.9999H14.5001ZM12.0001 14.4999C10.6194 14.4999 9.50018 13.3807 9.50006 12.0001L7.50006 12.0003C7.50027 14.4854 9.51491 16.4999 12.0001 16.4999V14.4999ZM7.5 12.0001C7.5 12.5502 7.94546 13.0002 8.50003 13.0002V11.0002C9.05457 11.0002 9.5 11.4501 9.5 12.0001L7.5 12.0001ZM9.50006 12.0001C9.50001 11.458 9.06242 11.0002 8.50003 11.0002V13.0002C7.93767 13.0002 7.50011 12.5423 7.50006 12.0003L9.50006 12.0001ZM12.5184 7.36073C12.2124 7.5928 11.7881 7.59315 11.4816 7.36071L12.6902 5.76719C12.2816 5.45729 11.718 5.45768 11.3099 5.76721L12.5184 7.36073Z" fill="currentColor"/>
<path d="M12 21V12" stroke="currentColor" stroke-width="2"/>
</svg>
