<svg width="24" height="24" viewBox="0 0 24 24" fill="none" xmlns="http://www.w3.org/2000/svg">
<path d="M18.0052 16.4883L17.5433 16.297L18.0052 16.4883ZM16.5962 18.597L16.9497 18.9506H16.9497L16.5962 18.597ZM14.4874 20.0061L14.2961 19.5441L14.2961 19.5441L14.4874 20.0061ZM9.51256 20.0061L9.7039 19.5441H9.7039L9.51256 20.0061ZM7.40381 18.597L7.75736 18.2435H7.75736L7.40381 18.597ZM5.99478 16.4883L5.53284 16.6796H5.53284L5.99478 16.4883ZM15.4072 6.58305L15.0664 6.21718L15.4072 6.58305ZM15.5914 6.58178L15.9321 6.21577L15.5914 6.58178ZM14.3536 7.48153L14.7629 7.19439L14.3536 7.48153ZM14.6027 7.48608L14.9998 7.78984L14.6027 7.48608ZM11.4202 4.54835L11.6837 4.97329L11.4202 4.54835ZM11.577 4.55614L11.2775 4.95657L11.577 4.55614ZM11.1567 4.12341C10.7792 4.35751 9.25266 5.35385 7.81554 7.01607C6.37866 8.67802 5 11.043 5 14.0009H6C6 11.3677 7.22635 9.22654 8.57201 7.6701C9.91745 6.11392 11.351 5.17954 11.6837 4.97329L11.1567 4.12341ZM14.7629 7.19439C13.5479 5.46229 12.2233 4.41514 11.8764 4.15571L11.2775 4.95657C11.5755 5.17939 12.8113 6.15356 13.9443 7.76867L14.7629 7.19439ZM14.9998 7.78984C15.3371 7.34885 15.6197 7.06837 15.748 6.94893L15.0664 6.21718C14.9037 6.36871 14.5819 6.69025 14.2055 7.18232L14.9998 7.78984ZM15.2508 6.94778C15.6999 7.36576 18 9.71577 18 13.9999H19C19 9.32974 16.4885 6.73366 15.9321 6.21577L15.2508 6.94778ZM18 13.9999V14.0009H19V13.9999H18ZM18 14.0009C18 14.7888 17.8448 15.569 17.5433 16.297L18.4672 16.6796C18.8189 15.8304 19 14.9201 19 14.0009H18ZM17.5433 16.297C17.2417 17.0249 16.7998 17.6863 16.2426 18.2435L16.9497 18.9506C17.5998 18.3006 18.1154 17.5289 18.4672 16.6796L17.5433 16.297ZM16.2426 18.2435C15.6855 18.8006 15.0241 19.2426 14.2961 19.5441L14.6788 20.468C15.5281 20.1162 16.2997 19.6006 16.9497 18.9506L16.2426 18.2435ZM14.2961 19.5441C13.5681 19.8457 12.7879 20.0009 12 20.0009V21.0009C12.9193 21.0009 13.8295 20.8198 14.6788 20.468L14.2961 19.5441ZM12 20.0009C11.2121 20.0009 10.4319 19.8457 9.7039 19.5441L9.32122 20.468C10.1705 20.8198 11.0807 21.0009 12 21.0009V20.0009ZM9.7039 19.5441C8.97595 19.2426 8.31451 18.8006 7.75736 18.2435L7.05025 18.9506C7.70026 19.6006 8.47194 20.1162 9.32122 20.468L9.7039 19.5441ZM7.75736 18.2435C7.20021 17.6863 6.75825 17.0249 6.45672 16.297L5.53284 16.6796C5.88463 17.5289 6.40024 18.3006 7.05025 18.9506L7.75736 18.2435ZM6.45672 16.297C6.15519 15.569 6 14.7888 6 14.0009H5C5 14.9201 5.18106 15.8304 5.53284 16.6796L6.45672 16.297ZM15.748 6.94893C15.6154 7.07245 15.3961 7.083 15.2508 6.94778L15.9321 6.21577C15.6808 5.98189 15.305 5.99494 15.0664 6.21718L15.748 6.94893ZM13.9443 7.76867C14.2 8.13326 14.7335 8.13807 14.9998 7.78984L14.2055 7.18232C14.3456 6.99913 14.6265 6.99988 14.7629 7.19439L13.9443 7.76867ZM11.6837 4.97329C11.5526 5.05459 11.3896 5.04036 11.2775 4.95657L11.8764 4.15571C11.6706 4.0018 11.3873 3.9804 11.1567 4.12341L11.6837 4.97329Z" fill="currentColor"/>
<path d="M15.4992 16.9218L14.9993 16.932L14.9993 16.9328L15.4992 16.9218ZM8.50006 17.0004L9.00006 17.0004L8.50006 17.0004ZM12.0859 11.5642L12.3881 11.1658L12.0859 11.5642ZM11.612 11.1658C11.3276 11.3815 10.4392 12.0883 9.61744 13.1C8.80364 14.1019 8.00001 15.4704 8 17.0004L9 17.0004C9.00001 15.8106 9.63473 14.6648 10.3936 13.7305C11.1446 12.806 11.9633 12.1545 12.2163 11.9626L11.612 11.1658ZM15.9991 16.9117C15.9685 15.4034 15.1658 14.0571 14.3587 13.0706C13.5438 12.0747 12.6698 11.3795 12.3881 11.1658L11.7838 11.9626C12.0342 12.1525 12.8397 12.7934 13.5847 13.7039C14.3376 14.624 14.9754 15.7547 14.9993 16.932L15.9991 16.9117ZM14.9993 16.9328C14.9998 16.9552 15.0001 16.9776 15.0001 17.0001H16.0001C16.0001 16.9703 15.9997 16.9405 15.9991 16.9109L14.9993 16.9328ZM15.0001 17.0001C15.0001 18.657 13.6569 20.0001 12.0001 20.0001V21.0001C14.2092 21.0001 16.0001 19.2093 16.0001 17.0001H15.0001ZM12.0001 20.0001C10.3433 20.0001 9.0002 18.6571 9.00006 17.0004L8.00006 17.0005C8.00025 19.2095 9.79104 21.0001 12.0001 21.0001V20.0001ZM8 17.0004C8 17.2754 8.22274 17.5004 8.50003 17.5004V16.5004C8.77729 16.5004 9 16.7254 9 17.0004L8 17.0004ZM9.00006 17.0004C9.00004 16.7293 8.78124 16.5004 8.50003 16.5004V17.5004C8.21886 17.5004 8.00008 17.2715 8.00006 17.0005L9.00006 17.0004ZM12.2163 11.9626C12.0888 12.0593 11.9115 12.0594 11.7838 11.9626L12.3881 11.1658C12.1583 10.9915 11.8416 10.9917 11.612 11.1658L12.2163 11.9626Z" fill="currentColor"/>
</svg>
