<svg width="24" height="24" viewBox="0 0 24 24" fill="none" xmlns="http://www.w3.org/2000/svg">
<path d="M18.5 12C18.5 15.5899 15.5899 18.5 12 18.5C8.41015 18.5 5.5 15.5899 5.5 12C5.5 6.36645 11.2303 2.93685 11.9302 2.53894C11.9741 2.51402 12.0259 2.51402 12.0698 2.53894C12.7697 2.93685 18.5 6.36645 18.5 12Z" stroke="currentColor" stroke-linejoin="round"/>
<path d="M15.4992 11.9216L14.9993 11.9317L14.9993 11.9326L15.4992 11.9216ZM8.50006 12.0002L9.00006 12.0001L8.50006 12.0002ZM12.0859 6.56395L12.3881 6.16557L12.0859 6.56395ZM11.612 6.16559C11.3276 6.38131 10.4392 7.08803 9.61744 8.09976C8.80364 9.10166 8.00001 10.4701 8 12.0001L9 12.0001C9.00001 10.8104 9.63473 9.66457 10.3936 8.73023C11.1446 7.80573 11.9633 7.15425 12.2163 6.96235L11.612 6.16559ZM15.9991 11.9114C15.9685 10.4031 15.1658 9.05682 14.3587 8.0704C13.5438 7.07443 12.6698 6.37926 12.3881 6.16557L11.7838 6.96233C12.0342 7.15226 12.8397 7.79311 13.5847 8.70366C14.3376 9.62375 14.9754 10.7545 14.9993 11.9317L15.9991 11.9114ZM14.9993 11.9326C14.9998 11.9549 15.0001 11.9774 15.0001 11.9999H16.0001C16.0001 11.9701 15.9997 11.9403 15.9991 11.9106L14.9993 11.9326ZM15.0001 11.9999C15.0001 13.6567 13.6569 14.9999 12.0001 14.9999V15.9999C14.2092 15.9999 16.0001 14.209 16.0001 11.9999H15.0001ZM12.0001 14.9999C10.3433 14.9999 9.0002 13.6569 9.00006 12.0001L8.00006 12.0002C8.00025 14.2092 9.79104 15.9999 12.0001 15.9999V14.9999ZM8 12.0001C8 12.2751 8.22274 12.5002 8.50003 12.5002V11.5002C8.77729 11.5002 9 11.7251 9 12.0001L8 12.0001ZM9.00006 12.0001C9.00004 11.7291 8.78124 11.5002 8.50003 11.5002V12.5002C8.21886 12.5002 8.00008 12.2712 8.00006 12.0002L9.00006 12.0001ZM12.2163 6.96235C12.0888 7.05902 11.9115 7.05918 11.7838 6.96233L12.3881 6.16557C12.1583 5.99125 11.8416 5.99146 11.612 6.16559L12.2163 6.96235Z" fill="currentColor"/>
<path d="M12 21V12" stroke="currentColor"/>
<circle cx="12" cy="12" r="1" fill="currentColor"/>
</svg>
