<svg width="24" height="24" viewBox="0 0 24 24" fill="none" xmlns="http://www.w3.org/2000/svg">
<path d="M11.9304 2.53932L11.6816 2.10558L11.9304 2.53932ZM12.0696 2.53932L12.3184 2.10558L12.0696 2.53932ZM11.6816 2.10558C11.3059 2.32103 9.6465 3.32559 8.07605 5.12675C6.5028 6.93111 5 9.55819 5 13.0002H6C6 9.86939 7.36269 7.46654 8.82978 5.78393C10.2997 4.09812 11.8554 3.15867 12.1791 2.97306L11.6816 2.10558ZM19 13.0002C19 9.55819 17.4972 6.93111 15.924 5.12675C14.3535 3.32559 12.6941 2.32103 12.3184 2.10558L11.8209 2.97306C12.1446 3.15867 13.7003 4.09812 15.1702 5.78394C16.6373 7.46654 18 9.86939 18 13.0002H19ZM18 13.0002C18 16.3139 15.3137 19.0002 12 19.0002V20.0002C15.866 20.0002 19 16.8662 19 13.0002H18ZM12 19.0002C8.68629 19.0002 6 16.3139 6 13.0002H5C5 16.8662 8.13401 20.0002 12 20.0002V19.0002ZM12.1791 2.97306C12.0688 3.03632 11.9312 3.03632 11.8209 2.97306L12.3184 2.10558C12.1206 1.99215 11.8794 1.99215 11.6816 2.10558L12.1791 2.97306Z" fill="currentColor" fill-opacity="0.24"/>
<path d="M15.5 13.974L15 13.9752L15 13.9776L15.5 13.974ZM8.50006 13.9999L8.00006 14L8.50006 13.9999ZM12.0851 6.56467L11.7757 6.9575L12.0851 6.56467ZM11.6057 6.1718C11.0241 6.62974 8.00001 9.23683 8 13.9999L9 13.9999C9.00001 9.69193 11.7357 7.34219 12.2243 6.95746L11.6057 6.1718ZM16 13.9728C15.9885 9.22704 12.975 6.62905 12.3944 6.17185L11.7757 6.9575C12.2635 7.34159 14.9896 9.68316 15 13.9752L16 13.9728ZM15 13.9776C15 13.9849 15.0001 13.9923 15.0001 13.9996H16.0001C16.0001 13.9899 16 13.9801 16 13.9704L15 13.9776ZM15.0001 13.9996C15.0001 15.6565 13.6569 16.9996 12.0001 16.9996V17.9996C14.2092 17.9996 16.0001 16.2088 16.0001 13.9996H15.0001ZM12.0001 16.9996C10.3433 16.9996 9.0002 15.6566 9.00006 13.9999L8.00006 14C8.00025 16.209 9.79104 17.9996 12.0001 17.9996V16.9996ZM8 13.9999C8 14.2598 8.2079 14.4999 8.50003 14.4999V13.4999C8.79213 13.4999 9 13.74 9 13.9999L8 13.9999ZM9.00006 13.9999C9.00004 13.7288 8.78123 13.4999 8.50003 13.4999V14.4999C8.21886 14.4999 8.00008 14.271 8.00006 14L9.00006 13.9999ZM12.2243 6.95746C12.093 7.06088 11.9066 7.06057 11.7757 6.9575L12.3944 6.17185C12.1628 5.98947 11.8377 5.98908 11.6057 6.1718L12.2243 6.95746Z" fill="currentColor"/>
<path d="M12 22V14" stroke="currentColor"/>
<circle cx="12" cy="14" r="1" fill="currentColor"/>
</svg>
