<svg width="24" height="24" viewBox="0 0 24 24" fill="none" xmlns="http://www.w3.org/2000/svg">
<path fill-rule="evenodd" clip-rule="evenodd" d="M8.43732 20.0001C9.88703 20.0001 11.0623 18.8249 11.0623 17.3752C11.0623 15.9255 9.88703 14.7502 8.43732 14.7502C6.9876 14.7502 5.81238 15.9255 5.81238 17.3752C5.81238 18.8249 6.9876 20.0001 8.43732 20.0001ZM8.43713 18.6873C9.16198 18.6873 9.7496 18.0997 9.7496 17.3749C9.7496 16.65 9.16198 16.0624 8.43713 16.0624C7.71227 16.0624 7.12466 16.65 7.12466 17.3749C7.12466 18.0997 7.71227 18.6873 8.43713 18.6873Z" fill="currentColor"/>
<path fill-rule="evenodd" clip-rule="evenodd" d="M17.1876 19.9992C18.6373 19.9992 19.8125 18.8239 19.8125 17.3742C19.8125 15.9245 18.6373 14.7493 17.1876 14.7493C15.7378 14.7493 14.5626 15.9245 14.5626 17.3742C14.5626 18.8239 15.7378 19.9992 17.1876 19.9992ZM17.1875 18.6867C17.9124 18.6867 18.5 18.099 18.5 17.3742C18.5 16.6493 17.9124 16.0617 17.1875 16.0617C16.4627 16.0617 15.8751 16.6493 15.8751 17.3742C15.8751 18.099 16.4627 18.6867 17.1875 18.6867Z" fill="currentColor"/>
<path d="M2.74996 6H14.1247C14.6079 6 14.9997 6.39174 14.9997 6.87498V7.31247M21.1245 11.2499H15.8747C15.3914 11.2499 14.9997 10.8581 14.9997 10.3749V7.31247M21.1245 11.2499L22.3123 13.2295C22.3939 13.3655 22.437 13.5211 22.437 13.6797V16.9373C22.437 17.4205 22.0453 17.8122 21.562 17.8122H19.3746M21.1245 11.2499L19.6055 7.83209C19.4651 7.51611 19.1517 7.31247 18.806 7.31247H14.9997M2.74996 17.8122H6.2983M1.87498 8.62494H8M1 11.6874H6.5M1.87498 14.3123H5M10.6354 17.8122H12.5935H14.9997" stroke="currentColor" stroke-width="1.5" stroke-linecap="round"/>
</svg>
