<svg width="24" height="24" viewBox="0 0 24 24" fill="none" xmlns="http://www.w3.org/2000/svg">
<circle cx="12" cy="12" r="3" fill="currentColor"/>
<path fill-rule="evenodd" clip-rule="evenodd" d="M11.9999 2.40002C12.3313 2.40002 12.5999 2.66865 12.5999 3.00002V5.00002C12.5999 5.0085 12.5997 5.01694 12.5994 5.02533C15.9872 5.31266 18.6873 8.01278 18.9746 11.4006L18.9865 11.4002L18.9999 11.4H20.9999C21.3313 11.4 21.5999 11.6687 21.5999 12C21.5999 12.3314 21.3313 12.6 20.9999 12.6H18.9999L18.9847 12.5998L18.9746 12.5995C18.6873 15.9873 15.9871 18.6874 12.5994 18.9747C12.5995 18.9781 12.5996 18.9814 12.5997 18.9848C12.5998 18.9899 12.5999 18.9949 12.5999 19V21C12.5999 21.3314 12.3313 21.6 11.9999 21.6C11.6685 21.6 11.3999 21.3314 11.3999 21V19C11.3999 18.9956 11.4 18.9911 11.4001 18.9866C11.4001 18.9827 11.4003 18.9787 11.4004 18.9747C8.01266 18.6874 5.31254 15.9873 5.02521 12.5995C5.01682 12.5998 5.00838 12.6 4.9999 12.6H2.9999C2.66853 12.6 2.3999 12.3314 2.3999 12C2.3999 11.6687 2.66853 11.4 2.9999 11.4H4.9999C5.00838 11.4 5.01682 11.4002 5.02521 11.4006C5.31254 8.01278 8.01265 5.31266 11.4004 5.02533C11.4001 5.01694 11.3999 5.0085 11.3999 5.00002V3.00002C11.3999 2.66865 11.6685 2.40002 11.9999 2.40002ZM11.9999 18C15.3136 18 17.9999 15.3137 17.9999 12C17.9999 8.68632 15.3136 6.00002 11.9999 6.00002C8.68619 6.00002 5.9999 8.68632 5.9999 12C5.9999 15.3137 8.68619 18 11.9999 18Z" fill="currentColor" fill-opacity="0.24"/>
</svg>
