<svg width="24" height="24" viewBox="0 0 24 24" fill="none" xmlns="http://www.w3.org/2000/svg">
<path d="M9 6C9 6.39397 9.0776 6.78407 9.22836 7.14805C9.37913 7.51203 9.6001 7.84274 9.87868 8.12132C10.1573 8.3999 10.488 8.62087 10.852 8.77164C11.2159 8.9224 11.606 9 12 9C12.394 9 12.7841 8.9224 13.1481 8.77164C13.512 8.62087 13.8427 8.3999 14.1213 8.12132C14.3999 7.84274 14.6209 7.51203 14.7716 7.14805C14.9224 6.78407 15 6.39396 15 6C15 5.60603 14.9224 5.21593 14.7716 4.85195C14.6209 4.48797 14.3999 4.15725 14.1213 3.87868C13.8427 3.6001 13.512 3.37912 13.148 3.22836C12.7841 3.0776 12.394 3 12 3C11.606 3 11.2159 3.0776 10.8519 3.22836C10.488 3.37913 10.1573 3.6001 9.87868 3.87868C9.6001 4.15726 9.37912 4.48797 9.22836 4.85195C9.0776 5.21593 9 5.60604 9 6L9 6Z" stroke="currentColor"/>
<path d="M4.43806 13.9015C4.09687 14.0985 3.79783 14.3607 3.558 14.6733C3.31817 14.9858 3.14225 15.3426 3.04028 15.7231C2.93831 16.1037 2.9123 16.5006 2.96372 16.8912C3.01515 17.2818 3.143 17.6584 3.33998 17.9996C3.53696 18.3408 3.79922 18.6398 4.11177 18.8796C4.42433 19.1195 4.78106 19.2954 5.1616 19.3974C5.54214 19.4993 5.93904 19.5253 6.32964 19.4739C6.72023 19.4225 7.09687 19.2946 7.43806 19.0977C7.77924 18.9007 8.07829 18.6384 8.31812 18.3259C8.55795 18.0133 8.73387 17.6566 8.83583 17.276C8.9378 16.8955 8.96381 16.4986 8.91239 16.108C8.86097 15.7174 8.73312 15.3408 8.53613 14.9996C8.33915 14.6584 8.07689 14.3594 7.76434 14.1195C7.45179 13.8797 7.09505 13.7038 6.71451 13.6018C6.33397 13.4998 5.93707 13.4738 5.54648 13.5252C5.15588 13.5767 4.77924 13.7045 4.43806 13.9015L4.43806 13.9015Z" stroke="currentColor"/>
<path d="M19.5619 13.9015C19.9031 14.0985 20.2022 14.3607 20.442 14.6733C20.6818 14.9859 20.8578 15.3426 20.9597 15.7231C21.0617 16.1037 21.0877 16.5006 21.0363 16.8912C20.9849 17.2818 20.857 17.6584 20.66 17.9996C20.463 18.3408 20.2008 18.6398 19.8882 18.8796C19.5757 19.1195 19.2189 19.2954 18.8384 19.3974C18.4579 19.4993 18.061 19.5253 17.6704 19.4739C17.2798 19.4225 16.9031 19.2946 16.5619 19.0977C16.2208 18.9007 15.9217 18.6384 15.6819 18.3259C15.4421 18.0133 15.2661 17.6566 15.1642 17.276C15.0622 16.8955 15.0362 16.4986 15.0876 16.108C15.139 15.7174 15.2669 15.3408 15.4639 14.9996C15.6609 14.6584 15.9231 14.3594 16.2357 14.1195C16.5482 13.8797 16.9049 13.7038 17.2855 13.6018C17.666 13.4998 18.0629 13.4738 18.4535 13.5252C18.8441 13.5767 19.2208 13.7045 19.5619 13.9015L19.5619 13.9015Z" stroke="currentColor"/>
<path fill-rule="evenodd" clip-rule="evenodd" d="M9.0023 6.12554C9.00056 6.08389 8.99969 6.04217 8.99969 6.00041C8.99969 5.65308 9.06 5.30874 9.17759 4.98267C9.03283 5.03363 8.8893 5.08856 8.74719 5.14743C7.71592 5.5746 6.77889 6.2007 5.98959 6.99C5.20029 7.7793 4.57419 8.71633 4.14702 9.7476C3.71986 10.7789 3.5 11.8842 3.5 13.0004C3.5 13.5265 3.54883 14.0501 3.64519 14.5647C3.86875 14.2999 4.13676 14.0755 4.4375 13.9019C4.47371 13.881 4.51033 13.8609 4.54732 13.8415C4.51586 13.5628 4.5 13.282 4.5 13.0004C4.5 12.0155 4.69399 11.0402 5.0709 10.1303C5.44781 9.22034 6.00026 8.39355 6.6967 7.69711C7.36045 7.03336 8.1426 6.5004 9.0023 6.12554ZM14.9971 6.12527C15.857 6.50014 16.6394 7.03319 17.3033 7.6971C17.9997 8.39354 18.5522 9.22034 18.9291 10.1303C19.306 11.0402 19.5 12.0155 19.5 13.0004C19.5 13.2821 19.4841 13.563 19.4526 13.8418C19.4894 13.8611 19.5259 13.8811 19.5619 13.9019C19.8629 14.0757 20.131 14.3002 20.3547 14.5653C20.4511 14.0505 20.5 13.5267 20.5 13.0004C20.5 11.8842 20.2801 10.7789 19.853 9.74759C19.4258 8.71633 18.7997 7.77929 18.0104 6.99C17.2211 6.2007 16.2841 5.57459 15.2528 5.14743C15.1105 5.08847 14.9667 5.03345 14.8217 4.98242C14.9393 5.30857 14.9997 5.65299 14.9997 6.00041C14.9997 6.04208 14.9988 6.08371 14.9971 6.12527ZM17.533 19.453C17.1915 19.3918 16.8629 19.2719 16.5619 19.0981C16.5259 19.0773 16.4904 19.0558 16.4554 19.0336C15.9664 19.3947 15.4343 19.6958 14.8701 19.9295C13.9602 20.3064 12.9849 20.5004 12 20.5004C11.0151 20.5004 10.0398 20.3064 9.12988 19.9295C8.56563 19.6958 8.03337 19.3946 7.54432 19.0334C7.5092 19.0557 7.47359 19.0772 7.4375 19.0981C7.13663 19.2718 6.80818 19.3917 6.4669 19.4529C7.14725 20.0363 7.91666 20.5094 8.74719 20.8534C9.77846 21.2805 10.8838 21.5004 12 21.5004C13.1162 21.5004 14.2215 21.2805 15.2528 20.8534C16.0833 20.5094 16.8527 20.0364 17.533 19.453Z" fill="currentColor"/>
</svg>
