<svg width="14" height="14" viewBox="0 0 14 14" fill="none" xmlns="http://www.w3.org/2000/svg">
<path d="M9.42125 7C10.9585 6.14687 12 4.5075 12 2.625C12 2.41313 11.9864 2.205 11.9614 2H2.03858C2.01269 2.20756 1.99982 2.41621 2 2.625C2 4.5075 3.04079 6.14687 4.57804 7C3.04079 7.85313 2 9.4925 2 11.375C2 11.5869 2.01357 11.795 2.03858 12H11.9614C11.9871 11.795 12 11.5869 12 11.375C12 9.4925 10.9592 7.85313 9.42196 7H9.42125ZM3.07079 11.375C3.07079 9.54938 3.96586 8.00187 5.57097 7.49125V6.50875C3.96586 5.99813 3.07079 4.45 3.07079 2.625H10.9285C10.9285 4.45062 10.0334 5.99813 8.42832 6.50875V7.49125C10.0334 8.00187 10.9285 9.55 10.9285 11.375H3.07079ZM8.20116 8.53875C7.4011 8.14187 7.35753 7.62687 7.35681 7.31437V6.68687C7.35681 6.37437 7.39896 5.8575 8.20259 5.46C8.63262 5.24187 9.00407 4.91 9.28552 4.49938H4.71377C4.99593 4.91 5.3681 5.24188 5.79813 5.46063C6.59819 5.8575 6.64176 6.3725 6.64248 6.685V7.3125C6.64248 7.625 6.60033 8.14188 5.7967 8.53938C4.98593 8.95125 4.38231 9.76688 4.19944 10.75H9.79913C9.61626 9.76625 9.01193 8.95062 8.20044 8.53875H8.20116Z" fill="#69AA43"/>
</svg>
