<svg width="24" height="24" viewBox="0 0 24 24" fill="none" xmlns="http://www.w3.org/2000/svg">
<circle cx="19" cy="6" r="2" fill="currentColor"/>
<path fill-rule="evenodd" clip-rule="evenodd" d="M12.9 17.5H4.68608C3.73917 17.5 3.16531 16.4546 3.67368 15.6557L8.48767 8.09091C8.95922 7.34991 10.0409 7.34991 10.5125 8.0909L13.7459 13.1721L15.54 10.78C16.02 10.14 16.98 10.14 17.46 10.78L21.06 15.58C21.6533 16.3711 21.0889 17.5 20.1 17.5H14.3141H12.9Z" fill="currentColor" fill-opacity="0.24"/>
<path d="M3.67368 15.6557L4.09551 15.9242L3.67368 15.6557ZM8.48767 8.09091L8.90951 8.35934V8.35934L8.48767 8.09091ZM10.5125 8.0909L10.9343 7.82247V7.82247L10.5125 8.0909ZM13.7459 13.1721L13.3241 13.4405C13.4122 13.579 13.5627 13.6654 13.7268 13.6717C13.8908 13.678 14.0475 13.6034 14.1459 13.4721L13.7459 13.1721ZM15.54 10.78L15.14 10.48V10.48L15.54 10.78ZM17.46 10.78L17.86 10.48L17.46 10.78ZM21.06 15.58L21.46 15.28V15.28L21.06 15.58ZM4.68608 18H12.9V17H4.68608V18ZM3.25185 15.3873C2.53166 16.519 3.34463 18 4.68608 18V17C4.13371 17 3.79896 16.3902 4.09551 15.9242L3.25185 15.3873ZM8.06584 7.82247L3.25185 15.3873L4.09551 15.9242L8.90951 8.35934L8.06584 7.82247ZM10.9343 7.82247C10.2663 6.77272 8.73386 6.77272 8.06584 7.82247L8.90951 8.35934C9.18457 7.92709 9.81557 7.92709 10.0906 8.35934L10.9343 7.82247ZM14.1678 12.9036L10.9343 7.82247L10.0906 8.35934L13.3241 13.4405L14.1678 12.9036ZM15.14 10.48L13.3459 12.8721L14.1459 13.4721L15.94 11.08L15.14 10.48ZM17.86 10.48C17.18 9.57333 15.82 9.57333 15.14 10.48L15.94 11.08C16.22 10.7067 16.78 10.7067 17.06 11.08L17.86 10.48ZM21.46 15.28L17.86 10.48L17.06 11.08L20.66 15.88L21.46 15.28ZM20.1 18C21.5009 18 22.3005 16.4007 21.46 15.28L20.66 15.88C21.0061 16.3415 20.6768 17 20.1 17V18ZM14.3141 18H20.1V17H14.3141V18ZM12.9 18H14.3141V17H12.9V18Z" fill="currentColor"/>
</svg>
