<svg width="22" height="22" viewBox="0 0 22 22" fill="currentColor" xmlns="http://www.w3.org/2000/svg">
<circle cx="11" cy="11" r="10.5" fill="none" stroke="currentColor"/>
<path d="M11.278 11.2857L14.1352 9.66661V11.4761C14.4685 11.4761 14.8018 11.5238 15.0875 11.6666V8.85708C15.0875 8.66661 14.9923 8.52375 14.8494 8.42851L11.0875 6.33328C10.9923 6.28566 10.8971 6.23804 10.8018 6.23804C10.7066 6.23804 10.6114 6.28566 10.5161 6.33328L6.75421 8.42851C6.61135 8.52375 6.51611 8.66661 6.51611 8.85708V13.1428C6.51611 13.3333 6.61135 13.4761 6.75421 13.5714L10.5161 15.6666C10.6114 15.7142 10.7066 15.7618 10.8018 15.7618C10.8971 15.7618 10.9923 15.7142 11.0875 15.6666L11.5161 15.4285C11.3733 15.1428 11.3256 14.8095 11.278 14.4761M10.8018 7.28566L13.659 8.85708L12.7066 9.38089L9.89707 7.76185L10.8018 7.28566ZM10.3256 14.4761L7.46849 12.8571V9.66661L10.3256 11.2857V14.4761ZM10.8018 10.4285L7.94468 8.85708L8.89707 8.28566L11.7542 9.95232L10.8018 10.4285ZM16.0399 13.8571V14.8095H12.2304V13.8571H16.0399Z" fill="currentColor"/>
</svg>
