<svg width="16" height="16" viewBox="0 0 16 16" fill="none" xmlns="http://www.w3.org/2000/svg">
<path d="M12.6707 2.47003C12.7953 2.42476 12.8969 2.33184 12.953 2.21169C13.0092 2.09154 13.0153 1.95401 12.97 1.82936C12.9248 1.70471 12.8318 1.60314 12.7117 1.54701C12.5915 1.49087 12.454 1.48476 12.3294 1.53003L4.00003 4.55869V2.00003C4.00003 1.86742 3.94735 1.74024 3.85358 1.64647C3.75981 1.55271 3.63264 1.50003 3.50003 1.50003H2.50003C2.36742 1.50003 2.24024 1.55271 2.14647 1.64647C2.05271 1.74024 2.00003 1.86742 2.00003 2.00003V5.28669L1.32936 5.53003C1.20471 5.57529 1.10314 5.66822 1.04701 5.78837C0.990872 5.90852 0.984764 6.04604 1.03003 6.17069C1.07529 6.29535 1.16822 6.39691 1.28837 6.45305C1.40852 6.50918 1.54604 6.51529 1.67069 6.47003L12.6707 2.47003Z" fill="#3A3B3C"/>
<path fill-rule="evenodd" clip-rule="evenodd" d="M2.01267 7.40995L12 3.77795V6.05995L14.6707 7.03062C14.7953 7.07588 14.8969 7.16881 14.953 7.28896C15.0092 7.40911 15.0153 7.54664 14.97 7.67129C14.9247 7.79594 14.8318 7.8975 14.7117 7.95364C14.5915 8.00978 14.454 8.01588 14.3293 7.97062L14 7.85062V13.5006H14.5C14.6326 13.5006 14.7598 13.5533 14.8536 13.6471C14.9473 13.7408 15 13.868 15 14.0006C15 14.1332 14.9473 14.2604 14.8536 14.3542C14.7598 14.4479 14.6326 14.5006 14.5 14.5006H1.5C1.36739 14.5006 1.24021 14.4479 1.14645 14.3542C1.05268 14.2604 1 14.1332 1 14.0006C1 13.868 1.05268 13.7408 1.14645 13.6471C1.24021 13.5533 1.36739 13.5006 1.5 13.5006H2V7.41462L2.01267 7.41062V7.40995ZM12 13.5V7.12329L13 7.48662V13.5H12ZM6 9.49995C5.86739 9.49995 5.74022 9.55263 5.64645 9.6464C5.55268 9.74017 5.5 9.86735 5.5 9.99995V13C5.5 13.276 5.724 13.5 6 13.5H8C8.13261 13.5 8.25979 13.4473 8.35355 13.3535C8.44732 13.2597 8.5 13.1326 8.5 13V9.99995C8.5 9.86735 8.44732 9.74017 8.35355 9.6464C8.25979 9.55263 8.13261 9.49995 8 9.49995H6Z" fill="#3A3B3C"/>
</svg>
