<svg width="24" height="24" viewBox="0 0 24 24" fill="none" xmlns="http://www.w3.org/2000/svg">
<path d="M12.1724 6C13.0367 6 13.8655 6.34332 14.4766 6.95443C15.0877 7.56554 15.431 8.39438 15.431 9.25862C15.431 10.1229 15.0877 10.9517 14.4766 11.5628C13.8655 12.1739 13.0367 12.5172 12.1724 12.5172C11.3082 12.5172 10.4793 12.1739 9.86822 11.5628C9.25711 10.9517 8.91379 10.1229 8.91379 9.25862C8.91379 8.39438 9.25711 7.56554 9.86822 6.95443C10.4793 6.34332 11.3082 6 12.1724 6ZM5.65517 8.32759C6.17655 8.32759 6.66069 8.46724 7.07966 8.71862C6.94 10.05 7.33103 11.3721 8.13172 12.4055C7.66621 13.2993 6.73517 13.9138 5.65517 13.9138C4.9144 13.9138 4.20396 13.6195 3.68015 13.0957C3.15634 12.5719 2.86207 11.8615 2.86207 11.1207C2.86207 10.3799 3.15634 9.66948 3.68015 9.14567C4.20396 8.62186 4.9144 8.32759 5.65517 8.32759ZM18.6897 8.32759C19.4304 8.32759 20.1409 8.62186 20.6647 9.14567C21.1885 9.66948 21.4828 10.3799 21.4828 11.1207C21.4828 11.8615 21.1885 12.5719 20.6647 13.0957C20.1409 13.6195 19.4304 13.9138 18.6897 13.9138C17.6097 13.9138 16.6786 13.2993 16.2131 12.4055C17.0248 11.3576 17.4016 10.0371 17.2652 8.71862C17.6841 8.46724 18.1683 8.32759 18.6897 8.32759ZM6.12069 17.8707C6.12069 15.9434 8.83 14.3793 12.1724 14.3793C15.5148 14.3793 18.2241 15.9434 18.2241 17.8707V19.5H6.12069V17.8707ZM1 19.5V18.1034C1 16.8093 2.75966 15.72 5.1431 15.4034C4.59379 16.0366 4.25862 16.9117 4.25862 17.8707V19.5H1ZM23.3448 19.5H20.0862V17.8707C20.0862 16.9117 19.751 16.0366 19.2017 15.4034C21.5852 15.72 23.3448 16.8093 23.3448 18.1034V19.5Z" fill="currentColor"/>
</svg>
