<svg width="32" height="32" viewBox="0 0 32 32" fill="none" xmlns="http://www.w3.org/2000/svg">
<rect x="0.5" y="0.5" width="31" height="31" rx="4.5" stroke="white"/>
<path d="M22.44 16H9.55999C9.14025 16 8.79999 16.3403 8.79999 16.76V16.84C8.79999 17.2597 9.14025 17.6 9.55999 17.6H22.44C22.8597 17.6 23.2 17.2597 23.2 16.84V16.76C23.2 16.3403 22.8597 16 22.44 16Z" fill="white"/>
<path d="M22.44 20H9.55999C9.14025 20 8.79999 20.3403 8.79999 20.76V20.84C8.79999 21.2597 9.14025 21.6 9.55999 21.6H22.44C22.8597 21.6 23.2 21.2597 23.2 20.84V20.76C23.2 20.3403 22.8597 20 22.44 20Z" fill="white"/>
<path d="M22.44 12H9.55999C9.14025 12 8.79999 12.3403 8.79999 12.76V12.84C8.79999 13.2597 9.14025 13.6 9.55999 13.6H22.44C22.8597 13.6 23.2 13.2597 23.2 12.84V12.76C23.2 12.3403 22.8597 12 22.44 12Z" fill="white"/>
</svg>
