<svg width="24" height="24" viewBox="0 0 24 24" fill="none" xmlns="http://www.w3.org/2000/svg">
<path fill-rule="evenodd" clip-rule="evenodd" d="M9.0098 12.0931C8.73646 11.8979 8.59979 11.8003 8.46414 11.7882C8.34516 11.7777 8.22634 11.8101 8.12918 11.8796C8.0184 11.9588 7.95019 12.1122 7.81376 12.4192L4.77521 19.2559L4.7752 19.256C4.53166 19.8039 4.40989 20.0779 4.46175 20.2542C4.50675 20.4072 4.62202 20.5295 4.77205 20.5835C4.94494 20.6458 5.22568 20.5405 5.78715 20.3299L11.7191 18.1054C11.8231 18.0665 11.8751 18.047 11.9285 18.0392C11.9759 18.0324 12.0241 18.0324 12.0715 18.0392C12.125 18.047 12.177 18.0665 12.2809 18.1054L18.2129 20.3299C18.7744 20.5405 19.0551 20.6458 19.228 20.5835C19.378 20.5295 19.4933 20.4072 19.5383 20.2542C19.5902 20.0779 19.4684 19.8039 19.2249 19.2559L16.1863 12.4192C16.0499 12.1122 15.9817 11.9588 15.8709 11.8796C15.7737 11.8101 15.6549 11.7777 15.5359 11.7882C15.4003 11.8003 15.2636 11.8979 14.9903 12.0931L12.5813 13.8138C12.2336 14.0622 11.7665 14.0622 11.4188 13.8138L9.0098 12.0931ZM9.06115 9.61257C9.04948 9.63882 9.05789 9.66966 9.08127 9.68636L11.535 11.4391C11.7023 11.5586 11.786 11.6183 11.8772 11.6414C11.9578 11.6618 12.0422 11.6618 12.1228 11.6414C12.2141 11.6183 12.2977 11.5586 12.465 11.4391L14.9188 9.68636C14.9422 9.66966 14.9506 9.63882 14.9389 9.61257L12.7311 4.64496C12.4995 4.12401 12.3838 3.86353 12.2225 3.7834C12.0823 3.7138 11.9177 3.7138 11.7776 3.7834C11.6163 3.86353 11.5005 4.12401 11.269 4.64495L9.06115 9.61257Z" fill="currentColor"/>
</svg>
