<svg width="16" height="16" viewBox="0 0 16 16" fill="none" xmlns="http://www.w3.org/2000/svg">
<path fill-rule="evenodd" clip-rule="evenodd" d="M4.9999 4C4.9999 3.20435 5.31597 2.44129 5.87858 1.87868C6.44119 1.31607 7.20425 1 7.9999 1C8.79555 1 9.55861 1.31607 10.1212 1.87868C10.6838 2.44129 10.9999 3.20435 10.9999 4C10.9999 4.79565 10.6838 5.55871 10.1212 6.12132C9.55861 6.68393 8.79555 7 7.9999 7C7.20425 7 6.44119 6.68393 5.87858 6.12132C5.31597 5.55871 4.9999 4.79565 4.9999 4ZM2.50057 13.4033C2.52305 11.9596 3.11233 10.5827 4.14121 9.56972C5.17009 8.55674 6.55604 7.98897 7.9999 7.98897C9.44376 7.98897 10.8297 8.55674 11.8586 9.56972C12.8875 10.5827 13.4768 11.9596 13.4992 13.4033C13.501 13.5005 13.4743 13.5961 13.4226 13.6784C13.3709 13.7607 13.2962 13.8261 13.2079 13.8667C11.574 14.6158 9.79734 15.0024 7.9999 15C6.14257 15 4.3779 14.5947 2.7919 13.8667C2.70356 13.8261 2.62895 13.7607 2.57721 13.6784C2.52547 13.5961 2.49883 13.5005 2.50057 13.4033Z" fill="#3A3B3C"/>
</svg>
