<svg width="24" height="24" viewBox="0 0 24 24" fill="none" xmlns="http://www.w3.org/2000/svg">
<g clip-path="url(#clip0_5_16670)">
<path fill-rule="evenodd" clip-rule="evenodd" d="M12.41 2.58L21.41 11.58C21.77 11.94 22 12.45 22 13C22 13.55 21.78 14.05 21.41 14.41L14.41 21.41C14.05 21.78 13.55 22 13 22C12.45 22 11.95 21.78 11.59 21.42L2.59 12.42C2.22 12.05 2 11.55 2 11V4C2 2.9 2.9 2 4 2H11C11.55 2 12.05 2.22 12.41 2.58ZM4 5.5C4 6.33 4.67 7 5.5 7C6.33 7 7 6.33 7 5.5C7 4.67 6.33 4 5.5 4C4.67 4 4 4.67 4 5.5ZM11.2133 16.904C11.9419 17.6325 12.9086 17.5773 13.72 16.7659C14.5279 15.958 14.5763 15.012 13.8408 14.2765C13.1089 13.5446 12.1559 13.5929 11.3515 14.3974C10.5401 15.2088 10.4883 16.179 11.2133 16.904ZM12.8327 15.8786C12.446 16.2653 12.1007 16.3896 11.9142 16.2031C11.7312 16.0201 11.859 15.6714 12.2388 15.2916C12.622 14.9084 12.95 14.7944 13.1365 14.9809C13.3264 15.1708 13.2159 15.4953 12.8327 15.8786ZM10.6885 11.145C11.4171 11.8735 12.3838 11.8182 13.1952 11.0069C14.0031 10.1989 14.0514 9.25291 13.316 8.51749C12.5841 7.78552 11.6311 7.83386 10.8267 8.63833C10.0153 9.44971 9.96348 10.4199 10.6885 11.145ZM12.3078 10.1195C11.9211 10.5062 11.5759 10.6305 11.3894 10.4441C11.2064 10.2611 11.3342 9.91237 11.714 9.53258C12.0972 9.14933 12.4252 9.03539 12.6117 9.22184C12.8016 9.41173 12.6911 9.73628 12.3078 10.1195ZM8.17546 13.7004C8.30968 13.8346 8.49998 13.8966 8.68749 13.8671L15.8504 12.7413C16.3286 12.6661 16.5194 12.08 16.1771 11.7377C16.0433 11.6039 15.8537 11.5421 15.6668 11.5714L8.50337 12.694C8.02365 12.7692 7.83211 13.3571 8.17546 13.7004Z" fill="currentColor"/>
</g>
<defs>
<clipPath id="clip0_5_16670">
<rect width="24" height="24" fill="white"/>
</clipPath>
</defs>c:\Users\admin\Downloads\file_Tick.svg
</svg>
