<svg width="24" height="24" viewBox="0 0 24 24" fill="none" xmlns="http://www.w3.org/2000/svg">
<path fill-rule="evenodd" clip-rule="evenodd" d="M10.5 6.57581C10.5 6.39599 10.5 6.30607 10.438 6.26116C10.376 6.21624 10.2935 6.24331 10.1285 6.29744C7.73122 7.08375 6 9.3396 6 11.9998C6 15.3135 8.68629 17.9998 12 17.9998C15.3137 17.9998 18 15.3135 18 11.9998C18 9.3396 16.2688 7.08375 13.8715 6.29744C13.7065 6.24331 13.624 6.21624 13.562 6.26116C13.5 6.30607 13.5 6.39599 13.5 6.57581V8.99983C13.5 9.82826 12.8284 10.4998 12 10.4998C11.1716 10.4998 10.5 9.82826 10.5 8.99983V6.57581Z" fill="currentColor" fill-opacity="0.24"/>
<path d="M12 9L12 4" stroke="currentColor" stroke-linecap="round"/>
<path d="M18.0104 5.98959C19.1992 7.17834 20.0087 8.69289 20.3367 10.3417C20.6646 11.9906 20.4963 13.6996 19.853 15.2528C19.2096 16.806 18.1202 18.1335 16.7223 19.0675C15.3245 20.0015 13.6811 20.5 12 20.5C10.3189 20.5 8.67547 20.0015 7.27765 19.0675C5.87984 18.1335 4.79037 16.806 4.14702 15.2528C3.50368 13.6996 3.33535 11.9906 3.66332 10.3417C3.9913 8.69289 4.80085 7.17834 5.98959 5.98959" stroke="currentColor" stroke-linecap="round"/>
</svg>
