<svg width="32" height="32" viewBox="0 0 32 32" fill="none" xmlns="http://www.w3.org/2000/svg">
<circle cx="16" cy="16" r="15.75" stroke="#A2A5A9" stroke-width="0.5"/>
<path d="M9.8463 9.23077C9.19346 9.23077 8.56736 9.49011 8.10573 9.95174C7.64411 10.4134 7.38477 11.0395 7.38477 11.6923V12.3077H24.6155V11.6923C24.6155 11.0395 24.3562 10.4134 23.8946 9.95174C23.4329 9.49011 22.8068 9.23077 22.154 9.23077H9.8463Z" fill="#A2A5A9"/>
<path fill-rule="evenodd" clip-rule="evenodd" d="M24.6155 14.1538H7.38477V20.3077C7.38477 20.9605 7.64411 21.5866 8.10573 22.0482C8.56736 22.5099 9.19346 22.7692 9.8463 22.7692H22.154C22.8068 22.7692 23.4329 22.5099 23.8946 22.0482C24.3562 21.5866 24.6155 20.9605 24.6155 20.3077V14.1538ZM9.8463 17.2307C9.8463 17.0675 9.91114 16.911 10.0265 16.7956C10.142 16.6802 10.2985 16.6153 10.4617 16.6153H15.3848C15.548 16.6153 15.7045 16.6802 15.8199 16.7956C15.9353 16.911 16.0002 17.0675 16.0002 17.2307C16.0002 17.3939 15.9353 17.5505 15.8199 17.6659C15.7045 17.7813 15.548 17.8461 15.3848 17.8461H10.4617C10.2985 17.8461 10.142 17.7813 10.0265 17.6659C9.91114 17.5505 9.8463 17.3939 9.8463 17.2307ZM10.4617 19.0769C10.2985 19.0769 10.142 19.1417 10.0265 19.2571C9.91114 19.3725 9.8463 19.5291 9.8463 19.6923C9.8463 19.8555 9.91114 20.012 10.0265 20.1274C10.142 20.2428 10.2985 20.3077 10.4617 20.3077H12.9232C13.0864 20.3077 13.243 20.2428 13.3584 20.1274C13.4738 20.012 13.5386 19.8555 13.5386 19.6923C13.5386 19.5291 13.4738 19.3725 13.3584 19.2571C13.243 19.1417 13.0864 19.0769 12.9232 19.0769H10.4617Z" fill="#A2A5A9"/>
</svg>
