<svg width="30" height="30" viewBox="0 0 30 30" fill="none" xmlns="http://www.w3.org/2000/svg">
<path d="M5.76921 4.84619C4.78995 4.84619 3.8508 5.2352 3.15836 5.92764C2.46591 6.62009 2.0769 7.55924 2.0769 8.5385V9.46158H27.9231V8.5385C27.9231 7.55924 27.534 6.62009 26.8416 5.92764C26.1492 5.2352 25.21 4.84619 24.2307 4.84619H5.76921Z" fill="currentColor"/>
<path fill-rule="evenodd" clip-rule="evenodd" d="M27.9231 12.2307H2.0769V21.4615C2.0769 22.4407 2.46591 23.3799 3.15836 24.0723C3.8508 24.7648 4.78995 25.1538 5.76921 25.1538H24.2307C25.21 25.1538 26.1492 24.7648 26.8416 24.0723C27.534 23.3799 27.9231 22.4407 27.9231 21.4615V12.2307ZM5.76921 16.8461C5.76921 16.6013 5.86646 16.3665 6.03957 16.1934C6.21269 16.0203 6.44747 15.923 6.69229 15.923H14.0769C14.3217 15.923 14.5565 16.0203 14.7296 16.1934C14.9027 16.3665 15 16.6013 15 16.8461C15 17.0909 14.9027 17.3257 14.7296 17.4988C14.5565 17.6719 14.3217 17.7692 14.0769 17.7692H6.69229C6.44747 17.7692 6.21269 17.6719 6.03957 17.4988C5.86646 17.3257 5.76921 17.0909 5.76921 16.8461ZM6.69229 19.6153C6.44747 19.6153 6.21269 19.7126 6.03957 19.8857C5.86646 20.0588 5.76921 20.2936 5.76921 20.5384C5.76921 20.7832 5.86646 21.018 6.03957 21.1911C6.21269 21.3642 6.44747 21.4615 6.69229 21.4615H10.3846C10.6294 21.4615 10.8642 21.3642 11.0373 21.1911C11.2104 21.018 11.3077 20.7832 11.3077 20.5384C11.3077 20.2936 11.2104 20.0588 11.0373 19.8857C10.8642 19.7126 10.6294 19.6153 10.3846 19.6153H6.69229Z" fill="currentColor"/>
</svg>
