<svg width="32" height="32" viewBox="0 0 32 32" fill="none" xmlns="http://www.w3.org/2000/svg">
<circle cx="16" cy="16" r="13" fill="#00ADEF"/>
<circle cx="16" cy="16" r="15.75" stroke="#00ADEF" stroke-width="0.5"/>
<path d="M11 10.5C10.4696 10.5 9.96086 10.7107 9.58579 11.0858C9.21071 11.4609 9 11.9696 9 12.5V13H23V12.5C23 11.9696 22.7893 11.4609 22.4142 11.0858C22.0391 10.7107 21.5304 10.5 21 10.5H11Z" fill="white"/>
<path fill-rule="evenodd" clip-rule="evenodd" d="M23 14.5H9V19.5C9 20.0304 9.21071 20.5391 9.58579 20.9142C9.96086 21.2893 10.4696 21.5 11 21.5H21C21.5304 21.5 22.0391 21.2893 22.4142 20.9142C22.7893 20.5391 23 20.0304 23 19.5V14.5ZM11 17C11 16.8674 11.0527 16.7402 11.1464 16.6464C11.2402 16.5527 11.3674 16.5 11.5 16.5H15.5C15.6326 16.5 15.7598 16.5527 15.8536 16.6464C15.9473 16.7402 16 16.8674 16 17C16 17.1326 15.9473 17.2598 15.8536 17.3536C15.7598 17.4473 15.6326 17.5 15.5 17.5H11.5C11.3674 17.5 11.2402 17.4473 11.1464 17.3536C11.0527 17.2598 11 17.1326 11 17ZM11.5 18.5C11.3674 18.5 11.2402 18.5527 11.1464 18.6464C11.0527 18.7402 11 18.8674 11 19C11 19.1326 11.0527 19.2598 11.1464 19.3536C11.2402 19.4473 11.3674 19.5 11.5 19.5H13.5C13.6326 19.5 13.7598 19.4473 13.8536 19.3536C13.9473 19.2598 14 19.1326 14 19C14 18.8674 13.9473 18.7402 13.8536 18.6464C13.7598 18.5527 13.6326 18.5 13.5 18.5H11.5Z" fill="white"/>
</svg>
