<svg width="30" height="30" viewBox="0 0 30 30" fill="none" xmlns="http://www.w3.org/2000/svg">
<path d="M23.6228 4.79082C23.8529 4.70726 24.0404 4.5357 24.1441 4.31389C24.2477 4.09207 24.259 3.83818 24.1754 3.60805C24.0919 3.37792 23.9203 3.19042 23.6985 3.08678C23.4767 2.98315 23.2228 2.97187 22.9926 3.05544L7.61542 8.64682V3.92313C7.61542 3.67831 7.51816 3.44352 7.34505 3.27041C7.17194 3.0973 6.93715 3.00005 6.69234 3.00005H4.84619C4.60137 3.00005 4.36658 3.0973 4.19347 3.27041C4.02036 3.44352 3.92311 3.67831 3.92311 3.92313V9.99082L2.68495 10.4401C2.45483 10.5236 2.26732 10.6952 2.16369 10.917C2.06005 11.1388 2.04878 11.3927 2.13234 11.6228C2.2159 11.8529 2.38746 12.0405 2.60927 12.1441C2.83109 12.2477 3.08498 12.259 3.31511 12.1754L23.6228 4.79082Z" fill="currentColor"/>
<path fill-rule="evenodd" clip-rule="evenodd" d="M3.94644 13.9108L22.3846 7.20557V11.4185L27.3151 13.2105C27.5452 13.2941 27.7327 13.4656 27.8363 13.6874C27.94 13.9092 27.9512 14.1631 27.8677 14.3933C27.7841 14.6234 27.6126 14.8109 27.3907 14.9145C27.1689 15.0182 26.915 15.0294 26.6849 14.9459L26.0769 14.7243V25.1551H27C27.2448 25.1551 27.4796 25.2524 27.6527 25.4255C27.8258 25.5986 27.9231 25.8334 27.9231 26.0782C27.9231 26.323 27.8258 26.5578 27.6527 26.7309C27.4796 26.904 27.2448 27.0013 27 27.0013H2.99998C2.75517 27.0013 2.52038 26.904 2.34727 26.7309C2.17416 26.5578 2.0769 26.323 2.0769 26.0782C2.0769 25.8334 2.17416 25.5986 2.34727 25.4255C2.52038 25.2524 2.75517 25.1551 2.99998 25.1551H3.92306V13.9194L3.94644 13.912V13.9108ZM22.3846 25.1539V13.3816L24.2308 14.0523V25.1539H22.3846ZM11.3077 17.7693C11.0629 17.7693 10.8281 17.8665 10.655 18.0396C10.4818 18.2127 10.3846 18.4475 10.3846 18.6923V24.2308C10.3846 24.7403 10.7981 25.1539 11.3077 25.1539H15C15.2448 25.1539 15.4796 25.0566 15.6527 24.8835C15.8258 24.7104 15.9231 24.4756 15.9231 24.2308V18.6923C15.9231 18.4475 15.8258 18.2127 15.6527 18.0396C15.4796 17.8665 15.2448 17.7693 15 17.7693H11.3077Z" fill="currentColor"/>
</svg>
