<svg width="32" height="32" viewBox="0 0 32 32" fill="none" xmlns="http://www.w3.org/2000/svg">
<circle cx="16" cy="16" r="13" fill="#00ADEF"/>
<circle cx="16" cy="16" r="15.75" stroke="#00ADEF" stroke-width="0.5"/>
<path d="M10.25 10C9.55933 10 9 10.56 9 11.25V11.75C9 12.4407 9.56 13 10.25 13H21.75C22.44 13 23 12.44 23 11.75V11.25C23 10.5593 22.44 10 21.75 10H10.25Z" fill="white"/>
<path fill-rule="evenodd" clip-rule="evenodd" d="M10.0581 14L10.4181 20.1173C10.448 20.6264 10.6712 21.1047 11.0421 21.4547C11.413 21.8046 11.9035 21.9997 12.4134 22H19.5848C20.0949 22 20.5858 21.8051 20.9569 21.4551C21.3281 21.1052 21.5515 20.6266 21.5814 20.1173L21.9421 14H10.0581ZM14.1668 16.5C14.1668 16.3674 14.2195 16.2402 14.3132 16.1464C14.407 16.0527 14.5342 16 14.6668 16H17.3334C17.466 16 17.5932 16.0527 17.687 16.1464C17.7808 16.2402 17.8334 16.3674 17.8334 16.5C17.8334 16.6326 17.7808 16.7598 17.687 16.8536C17.5932 16.9473 17.466 17 17.3334 17H14.6668C14.5342 17 14.407 16.9473 14.3132 16.8536C14.2195 16.7598 14.1668 16.6326 14.1668 16.5Z" fill="white"/>
</svg>
