<svg width="16" height="18" viewBox="0 0 16 18" fill="none" xmlns="http://www.w3.org/2000/svg">
<path d="M10.5984 11.0145C10.4824 10.9781 9.7495 10.6612 10.2075 9.32566H10.2009C11.3947 8.14614 12.307 6.24812 12.307 4.37949C12.307 1.50624 10.3154 0 8.00073 0C5.6846 0 3.70392 1.50554 3.70392 4.37949C3.70392 6.25582 4.61112 8.16153 5.81222 9.33826C6.2804 10.5164 5.44321 10.9536 5.26819 11.0145C2.84412 11.8561 0 13.3889 0 14.9022V18C1.97508 18 4.167 18 8.02334 18C11.8855 18 11.555 17.9804 16 18V14.9022C16 13.3435 13.142 11.8225 10.5984 11.0145ZM6.57575 17.1073C6.57575 15.324 7.75935 12.9167 7.75935 12.9167L6.94038 12.3004C6.94038 11.7113 8 11.0949 8 11.0949C8 11.0949 9.0567 11.7211 9.0567 12.3004L8.24066 12.9167C8.24066 12.9167 9.42425 15.3149 9.42425 17.1269C9.42425 17.4109 6.57575 17.3452 6.57575 17.1073Z" fill="currentColor"/>
</svg>
