<svg width="32" height="32" viewBox="0 0 32 32" fill="none" xmlns="http://www.w3.org/2000/svg">
<circle cx="16" cy="16" r="15.75" stroke="#A2A5A9" stroke-width="0.5"/>
<path d="M21.7487 9.19388C21.9021 9.13817 22.0271 9.0238 22.0962 8.87592C22.1653 8.72805 22.1728 8.55878 22.1171 8.40537C22.0614 8.25195 21.947 8.12695 21.7992 8.05786C21.6513 7.98877 21.482 7.98125 21.3286 8.03696L11.0771 11.7645V8.61542C11.0771 8.45221 11.0123 8.29568 10.8969 8.18028C10.7815 8.06487 10.6249 8.00003 10.4617 8.00003H9.23095C9.06774 8.00003 8.91122 8.06487 8.79581 8.18028C8.6804 8.29568 8.61557 8.45221 8.61557 8.61542V12.6605L7.79013 12.96C7.63672 13.0157 7.51171 13.1301 7.44262 13.278C7.37353 13.4259 7.36601 13.5951 7.42172 13.7485C7.47743 13.902 7.5918 14.027 7.73968 14.0961C7.88755 14.1651 8.05682 14.1727 8.21024 14.117L21.7487 9.19388Z" fill="#A2A5A9"/>
<path fill-rule="evenodd" clip-rule="evenodd" d="M8.63112 15.2739L20.9232 10.8037V13.6123L24.2102 14.807C24.3636 14.8627 24.4886 14.9771 24.5577 15.1249C24.6268 15.2728 24.6343 15.4421 24.5786 15.5955C24.5229 15.7489 24.4085 15.8739 24.2607 15.943C24.1128 16.0121 23.9435 16.0196 23.7901 15.9639L23.3848 15.8162V22.7701H24.0002C24.1634 22.7701 24.3199 22.8349 24.4353 22.9503C24.5507 23.0657 24.6155 23.2222 24.6155 23.3855C24.6155 23.5487 24.5507 23.7052 24.4353 23.8206C24.3199 23.936 24.1634 24.0008 24.0002 24.0008H8.00015C7.83694 24.0008 7.68041 23.936 7.56501 23.8206C7.4496 23.7052 7.38477 23.5487 7.38477 23.3855C7.38477 23.2222 7.4496 23.0657 7.56501 22.9503C7.68041 22.8349 7.83694 22.7701 8.00015 22.7701H8.61554V15.2796L8.63112 15.2747V15.2739ZM20.9232 22.7692V14.921L22.154 15.3682V22.7692H20.9232ZM13.5386 17.8462C13.3754 17.8462 13.2189 17.911 13.1035 18.0264C12.9881 18.1418 12.9232 18.2983 12.9232 18.4616V22.1539C12.9232 22.4936 13.1989 22.7692 13.5386 22.7692H16.0002C16.1634 22.7692 16.3199 22.7044 16.4353 22.589C16.5507 22.4736 16.6155 22.3171 16.6155 22.1539V18.4616C16.6155 18.2983 16.5507 18.1418 16.4353 18.0264C16.3199 17.911 16.1634 17.8462 16.0002 17.8462H13.5386Z" fill="#A2A5A9"/>
</svg>
