<svg width="24" height="24" viewBox="0 0 24 24" fill="none" xmlns="http://www.w3.org/2000/svg">
<path d="M8.57385 19.3523L11.9553 12.5894C11.9737 12.5526 12.0263 12.5526 12.0447 12.5894L15.4261 19.3523C15.4483 19.3965 15.3996 19.4426 15.3566 19.4181L12.0248 17.5142C12.0094 17.5054 11.9906 17.5054 11.9752 17.5142L8.64338 19.4181C8.60043 19.4426 8.55173 19.3965 8.57385 19.3523Z" stroke="currentColor" stroke-linecap="round"/>
<path fill-rule="evenodd" clip-rule="evenodd" d="M7.50822 3.99996H16.4918C16.4977 3.99985 16.5036 3.99985 16.5094 3.99996H18.3L18.3214 3.99996C18.8633 3.99995 19.3004 3.99995 19.6543 4.02886C20.0187 4.05864 20.3388 4.12155 20.635 4.27244C21.1054 4.51212 21.4878 4.89457 21.7275 5.36498C21.8784 5.66113 21.9413 5.98122 21.9711 6.34564C22 6.69958 22 7.13665 22 7.67854V7.69996V13.3V13.3214C22 13.8633 22 14.3003 21.9711 14.6543C21.9413 15.0187 21.8784 15.3388 21.7275 15.6349C21.4878 16.1053 21.1054 16.4878 20.635 16.7275C20.3388 16.8784 20.0187 16.9413 19.6543 16.971C19.3425 16.9965 18.9662 16.9996 18.5106 16.9999C18.5033 17.0001 18.4961 17.0001 18.4889 16.9999L18.3215 17H18.3214H18.3H16C15.7239 17 15.5 16.7761 15.5 16.5C15.5 16.2238 15.7239 16 16 16H17.9098L16.0764 4.99996H7.92356L6.09023 16H8C8.27614 16 8.5 16.2238 8.5 16.5C8.5 16.7761 8.27614 17 8 17H5.7H5.67858H5.67853L5.51106 16.9999C5.50388 17.0001 5.49668 17.0001 5.48945 16.9999C5.0338 16.9996 4.65748 16.9965 4.34569 16.971C3.98126 16.9413 3.66117 16.8784 3.36502 16.7275C2.89462 16.4878 2.51217 16.1053 2.27248 15.6349C2.12159 15.3388 2.05868 15.0187 2.02891 14.6543C1.99999 14.3003 2 13.8633 2 13.3214V13.3V7.69996V7.67855V7.67855C2 7.13666 1.99999 6.69958 2.02891 6.34564C2.05868 5.98122 2.12159 5.66113 2.27248 5.36498C2.51217 4.89457 2.89462 4.51212 3.36502 4.27244C3.66117 4.12155 3.98126 4.05864 4.34569 4.02886C4.69963 3.99995 5.1367 3.99995 5.6786 3.99996L5.7 3.99996H7.49058C7.49644 3.99985 7.50232 3.99985 7.50822 3.99996ZM18.9232 15.998L17.0902 4.99996H18.3C18.8683 4.99996 19.2645 5.00034 19.5729 5.02554C19.8755 5.05027 20.0493 5.09635 20.181 5.16345C20.4632 5.30726 20.6927 5.53673 20.8365 5.81897C20.9036 5.95065 20.9497 6.12449 20.9744 6.42708C20.9996 6.7355 21 7.13165 21 7.69996V13.3C21 13.8683 20.9996 14.2644 20.9744 14.5728C20.9497 14.8754 20.9036 15.0493 20.8365 15.1809C20.6927 15.4632 20.4632 15.6927 20.181 15.8365C20.0493 15.9036 19.8755 15.9496 19.5729 15.9744C19.3921 15.9891 19.1812 15.9954 18.9232 15.998ZM5.07676 15.998L6.90977 4.99996H5.7C5.1317 4.99996 4.73554 5.00034 4.42712 5.02554C4.12454 5.05027 3.95069 5.09635 3.81901 5.16345C3.53677 5.30726 3.3073 5.53673 3.16349 5.81897C3.0964 5.95065 3.05031 6.12449 3.02559 6.42708C3.00039 6.7355 3 7.13165 3 7.69996V13.3C3 13.8683 3.00039 14.2644 3.02559 14.5728C3.05031 14.8754 3.0964 15.0493 3.16349 15.1809C3.3073 15.4632 3.53677 15.6927 3.81901 15.8365C3.95069 15.9036 4.12454 15.9496 4.42712 15.9744C4.60787 15.9891 4.81875 15.9954 5.07676 15.998ZM12.5 6.49996C12.5 6.22381 12.2761 5.99996 12 5.99996C11.7239 5.99996 11.5 6.22381 11.5 6.49996V9.49996C11.5 9.7761 11.7239 9.99996 12 9.99996C12.2761 9.99996 12.5 9.7761 12.5 9.49996V6.49996Z" fill="currentColor" fill-opacity="0.24"/>
</svg>
