<svg width="24" height="24" viewBox="0 0 24 24" fill="none" xmlns="http://www.w3.org/2000/svg">
<path fill-rule="evenodd" clip-rule="evenodd" d="M11 17C14.3137 17 17 14.3137 17 11C17 7.68629 14.3137 5 11 5C7.68629 5 5 7.68629 5 11C5 14.3137 7.68629 17 11 17ZM9.85195 8.22836C10.2159 8.0776 10.606 8 11 8C11.2761 8 11.5 7.77614 11.5 7.5C11.5 7.22386 11.2761 7 11 7C10.4747 7 9.95457 7.10346 9.46927 7.30448C8.98396 7.5055 8.54301 7.80014 8.17157 8.17157C7.80014 8.54301 7.5055 8.98396 7.30448 9.46927C7.10346 9.95457 7 10.4747 7 11C7 11.2761 7.22386 11.5 7.5 11.5C7.77614 11.5 8 11.2761 8 11C8 10.606 8.0776 10.2159 8.22836 9.85195C8.37913 9.48797 8.6001 9.15726 8.87868 8.87868C9.15726 8.6001 9.48797 8.37913 9.85195 8.22836Z" fill="currentColor"/>
<path fill-rule="evenodd" clip-rule="evenodd" d="M17.9282 15.0001C18.0662 14.7609 17.9843 14.4551 17.7452 14.3171C17.506 14.179 17.2002 14.2609 17.0621 14.5001C16.4478 15.5642 15.5641 16.4479 14.5 17.0623C14.2608 17.2003 14.1789 17.5061 14.3169 17.7453C14.455 17.9844 14.7608 18.0664 15 17.9283C15.4624 17.6613 15.895 17.3498 16.2922 16.9994L19.1464 19.8536C19.3417 20.0489 19.6583 20.0489 19.8535 19.8536C20.0488 19.6584 20.0488 19.3418 19.8535 19.1465L16.9993 16.2923C17.3497 15.8951 17.6612 15.4625 17.9282 15.0001Z" fill="currentColor" fill-opacity="0.24"/>
</svg>
