<svg width="24" height="24" viewBox="0 0 24 24" fill="none" xmlns="http://www.w3.org/2000/svg">
<path fill-rule="evenodd" clip-rule="evenodd" d="M18.2977 5.68315C17.9188 5.75055 17.3816 5.92686 16.5214 6.21358L10.0304 8.37724C9.20303 8.65304 8.61927 8.84795 8.19936 9.01179C7.99169 9.09282 7.84706 9.15754 7.74649 9.2106C7.6613 9.25554 7.63068 9.2803 7.62886 9.28156C7.223 9.67446 7.223 10.3255 7.62886 10.7184C7.63068 10.7197 7.6613 10.7444 7.74649 10.7894C7.84706 10.8424 7.99169 10.9072 8.19936 10.9882C8.61927 11.152 9.20303 11.3469 10.0304 11.6227C10.0494 11.6291 10.0683 11.6353 10.0869 11.6415C10.3603 11.7325 10.6003 11.8123 10.8213 11.9292C11.3538 12.2108 11.7891 12.6461 12.0707 13.1786C12.1876 13.3996 12.2674 13.6396 12.3584 13.913C12.3646 13.9317 12.3708 13.9505 12.3772 13.9695C12.653 14.7969 12.8479 15.3806 13.0117 15.8005C13.0927 16.0082 13.1575 16.1528 13.2105 16.2534C13.2555 16.3386 13.2802 16.3692 13.2815 16.371C13.6744 16.7769 14.3254 16.7769 14.7183 16.371C14.7196 16.3692 14.7444 16.3386 14.7893 16.2534C14.8424 16.1528 14.9071 16.0082 14.9881 15.8005C15.1519 15.3806 15.3469 14.7969 15.6227 13.9695L17.7863 7.4785C18.073 6.61832 18.2493 6.0811 18.3167 5.70219C18.3182 5.6943 18.3195 5.68663 18.3207 5.67916C18.3133 5.68042 18.3056 5.68175 18.2977 5.68315ZM18.5567 5.66004C18.5565 5.66022 18.5532 5.65995 18.5474 5.65868C18.554 5.65922 18.5569 5.65985 18.5567 5.66004ZM18.3412 5.45245C18.3399 5.44671 18.3397 5.44343 18.3399 5.44322C18.34 5.44302 18.3407 5.44588 18.3412 5.45245ZM17.9474 3.71406C18.4984 3.61605 19.2529 3.58686 19.833 4.16691C20.413 4.74697 20.3839 5.50148 20.2858 6.05247C20.1895 6.5939 19.9631 7.27302 19.7076 8.03931L19.6837 8.11095L17.52 14.6019L17.5106 14.6301C17.2463 15.423 17.0357 16.0549 16.8513 16.5275C16.678 16.9717 16.4725 17.4321 16.163 17.7541C14.9826 18.9825 13.0173 18.9825 11.8368 17.7541C11.5273 17.4321 11.3218 16.9717 11.1485 16.5275C10.9641 16.055 10.7535 15.423 10.4892 14.6303L10.4798 14.6019C10.3594 14.2407 10.3323 14.1694 10.3028 14.1136C10.2089 13.9361 10.0638 13.791 9.88627 13.6971C9.83046 13.6676 9.75917 13.6405 9.39797 13.5201L9.36964 13.5107C8.57685 13.2464 7.94494 13.0358 7.4724 12.8514C7.02821 12.6781 6.56784 12.4726 6.24579 12.1631C5.01735 10.9826 5.01735 9.01733 6.24579 7.83686C6.56784 7.52738 7.02821 7.32189 7.4724 7.14859C7.94496 6.96421 8.5769 6.75356 9.36972 6.48929L9.39797 6.47988L15.889 4.31622C15.9129 4.30823 15.9368 4.30027 15.9606 4.29234C16.7269 4.03683 17.406 3.81038 17.9474 3.71406Z" fill="currentColor"/>
</svg>
