<svg width="24" height="24" viewBox="0 0 24 24" fill="none" xmlns="http://www.w3.org/2000/svg">
<path fill-rule="evenodd" clip-rule="evenodd" d="M12 1.48462C11.3425 1.48462 10.7706 1.9062 9.62667 2.74936L7.90576 4.01781C7.72555 4.15064 7.63545 4.21705 7.53871 4.27291C7.44198 4.32876 7.33941 4.37358 7.13427 4.46323L5.1753 5.31935C3.87315 5.88843 3.22208 6.17297 2.89336 6.74233C2.56464 7.31168 2.64376 8.0178 2.802 9.43003L3.04006 11.5546C3.06499 11.7771 3.07745 11.8883 3.07745 12C3.07745 12.1117 3.06499 12.223 3.04006 12.4454L2.802 14.57C2.64376 15.9823 2.56464 16.6884 2.89336 17.2577C3.22208 17.8271 3.87315 18.1116 5.1753 18.6807L7.13427 19.5368C7.33941 19.6265 7.44198 19.6713 7.53871 19.7272C7.63545 19.783 7.72555 19.8494 7.90576 19.9822L9.62667 21.2507C10.7706 22.0939 11.3425 22.5154 12 22.5154C12.6574 22.5154 13.2294 22.0939 14.3733 21.2507L14.3733 21.2507L16.0942 19.9822C16.2744 19.8494 16.3645 19.783 16.4612 19.7272C16.558 19.6713 16.6605 19.6265 16.8657 19.5368L18.8246 18.6807C20.1268 18.1116 20.7779 17.8271 21.1066 17.2577C21.4353 16.6884 21.3562 15.9823 21.1979 14.57L20.9599 12.4454L20.9599 12.4454C20.935 12.223 20.9225 12.1117 20.9225 12C20.9225 11.8883 20.9349 11.7771 20.9599 11.5547L20.9599 11.5546L21.1979 9.43004C21.3562 8.0178 21.4353 7.31168 21.1066 6.74233C20.7779 6.17297 20.1268 5.88843 18.8246 5.31935L16.8657 4.46323L16.8657 4.46323C16.6605 4.37358 16.558 4.32876 16.4612 4.27291C16.3645 4.21705 16.2744 4.15064 16.0942 4.01781L14.3733 2.74936C13.2294 1.9062 12.6574 1.48462 12 1.48462ZM12 16C14.2091 16 16 14.2092 16 12C16 9.79089 14.2091 8.00003 12 8.00003C9.79083 8.00003 7.99997 9.79089 7.99997 12C7.99997 14.2092 9.79083 16 12 16Z" fill="currentColor"/>
</svg>
