<svg width="24" height="24" viewBox="0 0 24 24" fill="none" xmlns="http://www.w3.org/2000/svg">
<path fill-rule="evenodd" clip-rule="evenodd" d="M13 16.7531V13.9999H8.81765C7.2009 13.9999 5.83018 15.1888 5.60154 16.7893C5.29859 18.9099 7.095 20.7381 9.2206 20.4724L9.77823 20.4027C11.6188 20.1726 13 18.608 13 16.7531Z" fill="currentColor"/>
<path d="M13 7.99994V7.38845C13 5.77011 13 4.96094 13.474 4.40145C13.9479 3.84196 14.7461 3.70893 16.3424 3.44288L18.6991 3.05009C18.8349 3.02746 18.9028 3.01614 18.9395 3.05582C18.9761 3.09551 18.9594 3.16231 18.926 3.29588L18.0307 6.87716C18.0158 6.93683 18.0083 6.96667 17.9874 6.98667C17.9664 7.00667 17.9362 7.0127 17.8759 7.02477L13 7.99994ZM13 7.99994V13.9999M13 13.9999V16.7531C13 18.608 11.6188 20.1726 9.77823 20.4027L9.2206 20.4724C7.095 20.7381 5.29859 18.9099 5.60154 16.7893C5.83018 15.1888 7.2009 13.9999 8.81765 13.9999H13Z" stroke="currentColor" stroke-width="2"/>
</svg>
