<svg width="30" height="30" viewBox="0 0 30 30" fill="none" xmlns="http://www.w3.org/2000/svg">
<path fill-rule="evenodd" clip-rule="evenodd" d="M11.3077 2.0769H7.15388C5.87881 2.0769 4.84619 3.11075 4.84619 4.3846V25.6154C4.84619 26.8892 5.88004 27.9231 7.15388 27.9231H22.8462C24.12 27.9231 25.1539 26.8892 25.1539 25.6154V15.9231C25.1539 14.699 24.6676 13.525 23.8021 12.6595C22.9365 11.7939 21.7626 11.3077 20.5385 11.3077H18.2308C17.6188 11.3077 17.0318 11.0645 16.599 10.6318C16.1662 10.199 15.9231 9.61202 15.9231 8.99998V6.69229C15.9231 5.46821 15.4369 4.29427 14.5713 3.42872C13.7057 2.56317 12.5318 2.0769 11.3077 2.0769ZM19.4431 15.5366C19.517 15.4382 19.5704 15.326 19.6003 15.2067C19.6301 15.0873 19.6359 14.9632 19.6171 14.8416C19.5983 14.7201 19.5554 14.6035 19.4909 14.4987C19.4264 14.3939 19.3417 14.3031 19.2416 14.2316C19.1415 14.16 19.0281 14.1092 18.9081 14.0821C18.7881 14.055 18.6639 14.0522 18.5428 14.0738C18.4217 14.0954 18.3061 14.141 18.2028 14.2079C18.0996 14.2748 18.0108 14.3616 17.9416 14.4634L13.9588 20.0387L11.96 18.04C11.7851 17.8769 11.5536 17.7882 11.3145 17.7924C11.0753 17.7966 10.8472 17.8935 10.678 18.0626C10.5089 18.2317 10.412 18.4599 10.4078 18.699C10.4036 18.9382 10.4924 19.1696 10.6554 19.3446L13.4247 22.1138C13.5194 22.2085 13.6336 22.2814 13.7594 22.3275C13.8852 22.3736 14.0195 22.3918 14.153 22.3808C14.2865 22.3698 14.416 22.3299 14.5325 22.2638C14.649 22.1977 14.7498 22.1071 14.8277 21.9981L19.4431 15.5366Z" fill="currentColor"/>
<path d="M16.1951 2.46582C17.2123 3.6387 17.7714 5.13972 17.7692 6.69228V8.99997C17.7692 9.25474 17.976 9.46151 18.2308 9.46151H20.5385C22.091 9.45936 23.592 10.0184 24.7649 11.0357C24.2234 8.97623 23.1446 7.09757 21.6389 5.59183C20.1332 4.0861 18.2545 3.00731 16.1951 2.46582Z" fill="currentColor"/>
</svg>
