<svg width="24" height="24" viewBox="0 0 24 24" fill="none" xmlns="http://www.w3.org/2000/svg">
<circle cx="12" cy="12" r="3" fill="currentColor"/>
<path fill-rule="evenodd" clip-rule="evenodd" d="M12 18.0004C15.3137 18.0004 18 15.3141 18 12.0004C18 8.68666 15.3137 6.00037 12 6.00037C8.68629 6.00037 6 8.68666 6 12.0004C6 15.3141 8.68629 18.0004 12 18.0004ZM12 19.0004C13.7174 19.0004 15.2903 18.3819 16.5082 17.3556C16.5138 17.3617 16.5196 17.3677 16.5255 17.3737L17.9397 18.7879C18.174 19.0222 18.5539 19.0222 18.7883 18.7879C19.0226 18.5536 19.0226 18.1737 18.7883 17.9394L17.374 16.5251C17.3681 16.5192 17.362 16.5134 17.3559 16.5077C18.3818 15.2899 19 13.7173 19 12.0004C19 10.283 18.3816 8.7101 17.3552 7.4922C17.3616 7.48635 17.3679 7.48035 17.374 7.47418L18.7883 6.05997C19.0226 5.82565 19.0226 5.44575 18.7883 5.21144C18.5539 4.97713 18.174 4.97713 17.9397 5.21144L16.5255 6.62565C16.5193 6.63184 16.5133 6.63813 16.5074 6.64452C15.2896 5.61856 13.717 5.00037 12 5.00037C10.283 5.00037 8.71039 5.61855 7.49259 6.64448C7.48674 6.63811 7.48073 6.63183 7.47455 6.62565L6.06033 5.21144C5.82602 4.97713 5.44612 4.97713 5.21181 5.21144C4.97749 5.44576 4.97749 5.82565 5.21181 6.05997L6.62602 7.47418C6.63218 7.48034 6.63843 7.48633 6.64479 7.49217C5.61845 8.71008 5 10.283 5 12.0004C5 13.7174 5.61818 15.29 6.64412 16.5078C6.638 16.5134 6.63196 16.5192 6.62602 16.5251L5.21181 17.9394C4.97749 18.1737 4.97749 18.5536 5.21181 18.7879C5.44612 19.0222 5.82602 19.0222 6.06034 18.7879L7.47455 17.3737C7.48047 17.3678 7.48624 17.3617 7.49186 17.3556C8.70977 18.3819 10.2827 19.0004 12 19.0004Z" fill="currentColor" fill-opacity="0.24"/>
</svg>
