<svg width="14" height="14" viewBox="0 0 14 14" fill="none" xmlns="http://www.w3.org/2000/svg">
<path fill-rule="evenodd" clip-rule="evenodd" d="M7 1.3125C3.85875 1.3125 1.3125 3.85875 1.3125 7C1.3125 10.1412 3.85875 12.6875 7 12.6875C10.1412 12.6875 12.6875 10.1412 12.6875 7C12.6875 3.85875 10.1412 1.3125 7 1.3125ZM7.4375 3.5C7.4375 3.38397 7.39141 3.27269 7.30936 3.19064C7.22731 3.10859 7.11603 3.0625 7 3.0625C6.88397 3.0625 6.77269 3.10859 6.69064 3.19064C6.60859 3.27269 6.5625 3.38397 6.5625 3.5V7C6.5625 7.2415 6.7585 7.4375 7 7.4375H9.625C9.74103 7.4375 9.85231 7.39141 9.93436 7.30936C10.0164 7.22731 10.0625 7.11603 10.0625 7C10.0625 6.88397 10.0164 6.77269 9.93436 6.69064C9.85231 6.60859 9.74103 6.5625 9.625 6.5625H7.4375V3.5Z" fill="#ED1E24"/>
</svg>
