<svg width="19" height="22" viewBox="0 0 19 22" fill="none" xmlns="http://www.w3.org/2000/svg">
<path d="M12.24 8.00003L11.894 17M7.106 17L6.76 8.00003M16.728 4.79003C17.07 4.84203 17.41 4.89703 17.75 4.95603M16.728 4.79103L15.66 18.673C15.6164 19.2383 15.3611 19.7662 14.945 20.1513C14.529 20.5364 13.9829 20.7502 13.416 20.75H5.584C5.0171 20.7502 4.47102 20.5364 4.05498 20.1513C3.63894 19.7662 3.38359 19.2383 3.34 18.673L2.272 4.79003M16.728 4.79003C15.5739 4.61555 14.4138 4.48313 13.25 4.39303M1.25 4.95503C1.59 4.89603 1.93 4.84103 2.272 4.79003M2.272 4.79003C3.42613 4.61555 4.58623 4.48313 5.75 4.39303M13.25 4.39303V3.47703C13.25 2.29703 12.34 1.31303 11.16 1.27603C10.0536 1.24067 8.94638 1.24067 7.84 1.27603C6.66 1.31303 5.75 2.29803 5.75 3.47703V4.39303M13.25 4.39303C10.7537 4.20011 8.24628 4.20011 5.75 4.39303" stroke="currentColor" stroke-width="1.5" stroke-linecap="round" stroke-linejoin="round"/>
</svg>
