<svg width="19" height="22" viewBox="0 0 19 22" fill="none" xmlns="http://www.w3.org/2000/svg">
<path d="M11.8005 8.00003L11.4545 17M6.66655 17L6.32055 8.00003M16.2885 4.79003C16.6305 4.84203 16.9705 4.89703 17.3105 4.95603M16.2885 4.79103L15.2205 18.673C15.177 19.2383 14.9216 19.7662 14.5056 20.1513C14.0895 20.5364 13.5435 20.7502 12.9765 20.75H5.14455C4.57764 20.7502 4.03157 20.5364 3.61553 20.1513C3.19948 19.7662 2.94414 19.2383 2.90055 18.673L1.83255 4.79003M16.2885 4.79003C15.1344 4.61555 13.9743 4.48313 12.8105 4.39303M0.810547 4.95503C1.15055 4.89603 1.49055 4.84103 1.83255 4.79003M1.83255 4.79003C2.98668 4.61555 4.14678 4.48313 5.31055 4.39303M12.8105 4.39303V3.47703C12.8105 2.29703 11.9005 1.31303 10.7205 1.27603C9.61416 1.24067 8.50693 1.24067 7.40055 1.27603C6.22055 1.31303 5.31055 2.29803 5.31055 3.47703V4.39303M12.8105 4.39303C10.3143 4.20011 7.80682 4.20011 5.31055 4.39303" stroke="#3A3B3C" stroke-width="1.5" stroke-linecap="round" stroke-linejoin="round"/>
</svg>
