<svg width="25" height="24" viewBox="0 0 25 24" fill="none" xmlns="http://www.w3.org/2000/svg">
<path d="M15.24 9.00003L14.894 18M10.106 18L9.76 9.00003M19.728 5.79003C20.07 5.84203 20.41 5.89703 20.75 5.95603M19.728 5.79103L18.66 19.673C18.6164 20.2383 18.3611 20.7662 17.945 21.1513C17.529 21.5364 16.9829 21.7502 16.416 21.75H8.584C8.0171 21.7502 7.47102 21.5364 7.05498 21.1513C6.63894 20.7662 6.38359 20.2383 6.34 19.673L5.272 5.79003M19.728 5.79003C18.5739 5.61555 17.4138 5.48313 16.25 5.39303M4.25 5.95503C4.59 5.89603 4.93 5.84103 5.272 5.79003M5.272 5.79003C6.42613 5.61555 7.58623 5.48313 8.75 5.39303M16.25 5.39303V4.47703C16.25 3.29703 15.34 2.31303 14.16 2.27603C13.0536 2.24067 11.9464 2.24067 10.84 2.27603C9.66 2.31303 8.75 3.29803 8.75 4.47703V5.39303M16.25 5.39303C13.7537 5.20011 11.2463 5.20011 8.75 5.39303" stroke="#3A3B3C" stroke-width="1.5" stroke-linecap="round" stroke-linejoin="round"/>
</svg>
