<svg width="24" height="24" viewBox="0 0 24 24" fill="none" xmlns="http://www.w3.org/2000/svg">
<path d="M12 16V19.5" stroke="currentColor" stroke-width="1.6" stroke-linecap="round" stroke-linejoin="round"/>
<path d="M7.22104 13.5141L6.84319 13.1866L6.84319 13.1866L7.22104 13.5141ZM10.6999 9.5V9C10.5549 9 10.417 9.06295 10.3221 9.17253L10.6999 9.5ZM16.7788 13.5141L16.4009 13.8415L16.4009 13.8415L16.7788 13.5141ZM13.2999 9.5L13.6778 9.17253C13.5828 9.06295 13.4449 9 13.2999 9V9.5ZM7.59888 13.8415L11.0778 9.82747L10.3221 9.17253L6.84319 13.1866L7.59888 13.8415ZM8.12786 15C7.52802 15 7.20602 14.2948 7.59888 13.8415L6.84319 13.1866C5.88911 14.2875 6.67109 16 8.12786 16V15ZM15.872 15H8.12786V16H15.872V15ZM16.4009 13.8415C16.7938 14.2948 16.4718 15 15.872 15V16C17.3287 16 18.1107 14.2875 17.1566 13.1866L16.4009 13.8415ZM12.9221 9.82747L16.4009 13.8415L17.1566 13.1866L13.6778 9.17253L12.9221 9.82747ZM13.2999 9H10.6999V10H13.2999V9Z" fill="currentColor"/>
<path d="M8.3433 7.48913L11.2628 4.30417C11.6592 3.8718 12.3408 3.8718 12.7372 4.30417L15.6567 7.48913C16.3622 8.25881 15.8162 9.5 14.7721 9.5H9.22788C8.18376 9.5 7.63776 8.25881 8.3433 7.48913Z" stroke="currentColor" stroke-linecap="round" stroke-linejoin="round"/>
</svg>
