<svg width="24" height="24" viewBox="0 0 24 24" fill="none" xmlns="http://www.w3.org/2000/svg">
<path d="M12 17V20" stroke="currentColor" stroke-width="2" stroke-linecap="round" stroke-linejoin="round"/>
<path d="M6.25522 15.3861L7.04458 16L7.04458 16L6.25522 15.3861ZM10.4444 10V9C10.1358 9 9.84449 9.14247 9.65503 9.38606L10.4444 10ZM17.7446 15.3861L16.9553 16L16.9553 16L17.7446 15.3861ZM13.5555 10L14.3448 9.38606C14.1554 9.14247 13.8641 9 13.5555 9V10ZM7.04458 16L11.2337 10.6139L9.65503 9.38606L5.46587 14.7721L7.04458 16ZM7.04458 16L7.04458 16L5.46587 14.7721C4.44409 16.0858 5.38028 18 7.04458 18V16ZM16.9553 16H7.04458V18H16.9553V16ZM16.9553 16L16.9553 16V18C18.6196 18 19.5558 16.0858 18.534 14.7721L16.9553 16ZM12.7661 10.6139L16.9553 16L18.534 14.7721L14.3448 9.38606L12.7661 10.6139ZM13.5555 9H10.4444V11H13.5555V9Z" fill="currentColor"/>
<path d="M7.70711 8.29289L12 4L16.2929 8.29289C16.9229 8.92286 16.4767 10 15.5858 10H8.41421C7.52331 10 7.07714 8.92286 7.70711 8.29289Z" stroke="currentColor" stroke-width="2" stroke-linecap="round" stroke-linejoin="round"/>
</svg>
