<svg width="16" height="17" viewBox="0 0 16 17" fill="none" xmlns="http://www.w3.org/2000/svg">
<path fill-rule="evenodd" clip-rule="evenodd" d="M6.26713 2.50201C7.03713 1.16868 8.96246 1.16868 9.73179 2.50201L14.6351 11.0007C15.4045 12.334 14.4418 14.0007 12.9025 14.0007H3.09646C1.55713 14.0007 0.595127 12.334 1.36446 11.0007L6.26646 2.50201H6.26713ZM7.99979 6.00001C8.1324 6.00001 8.25958 6.05269 8.35335 6.14646C8.44711 6.24023 8.49979 6.36741 8.49979 6.50001V9.00001C8.49979 9.13262 8.44711 9.2598 8.35335 9.35357C8.25958 9.44733 8.1324 9.50001 7.99979 9.50001C7.86719 9.50001 7.74001 9.44733 7.64624 9.35357C7.55247 9.2598 7.49979 9.13262 7.49979 9.00001V6.50001C7.49979 6.36741 7.55247 6.24023 7.64624 6.14646C7.74001 6.05269 7.86719 6.00001 7.99979 6.00001ZM7.99979 11.5C8.1324 11.5 8.25958 11.4473 8.35335 11.3536C8.44711 11.2598 8.49979 11.1326 8.49979 11C8.49979 10.8674 8.44711 10.7402 8.35335 10.6465C8.25958 10.5527 8.1324 10.5 7.99979 10.5C7.86719 10.5 7.74001 10.5527 7.64624 10.6465C7.55247 10.7402 7.49979 10.8674 7.49979 11C7.49979 11.1326 7.55247 11.2598 7.64624 11.3536C7.74001 11.4473 7.86719 11.5 7.99979 11.5Z" fill="#ED1E24"/>
</svg>
