<svg width="24" height="24" viewBox="0 0 24 24" fill="none" xmlns="http://www.w3.org/2000/svg">
<path d="M13.7007 11.0181L18.2393 8.39775C18.6198 8.17808 19.1063 8.30844 19.326 8.68892L19.4227 8.85641C20.0482 9.93988 20.0715 11.2692 19.4842 12.3739C18.7688 13.7197 17.1343 14.283 15.7416 13.6637L13.7944 12.7979C13.0476 12.4658 12.9929 11.4268 13.7007 11.0181Z" stroke="currentColor" stroke-width="2"/>
<path fill-rule="evenodd" clip-rule="evenodd" d="M17.5622 16.3659L13.2008 13.8478L13.4245 15.9671C13.5294 16.9607 14.3849 17.7039 15.3834 17.669C16.2855 17.6374 17.1079 17.1452 17.5622 16.3659ZM18.7394 14.7361C19.5981 15.2319 19.8924 16.3301 19.3966 17.1888L19.2999 17.3563C18.5019 18.7384 17.0483 19.6119 15.4534 19.6677C13.4054 19.7395 11.6508 18.215 11.4356 16.1771L11.2118 14.0578C11.0402 12.4323 12.7852 11.2985 14.2008 12.1158L18.7394 14.7361Z" fill="currentColor"/>
<path fill-rule="evenodd" clip-rule="evenodd" d="M11 19V13.9638L9.27652 15.2172C8.4685 15.8049 8.25259 16.9173 8.78211 17.7646C9.26049 18.53 10.0979 18.9962 11 19ZM13 19.2045C13 20.1961 12.1961 21 11.2045 21H11.0111C9.41523 21 7.93193 20.1779 7.08612 18.8246C6.00002 17.0868 6.44288 14.805 8.10018 13.5997L9.82366 12.3463C11.1456 11.3849 13 12.3292 13 13.9638V19.2045Z" fill="currentColor"/>
<path fill-rule="evenodd" clip-rule="evenodd" d="M5.43788 14.634L9.79936 12.1159L7.85211 11.25C6.93919 10.8441 5.86779 11.2133 5.39882 12.0955C4.97515 12.8925 4.99014 13.8509 5.43788 14.634ZM6.26075 16.4683C5.40198 16.9641 4.30388 16.6699 3.80806 15.8111L3.71136 15.6436C2.91343 14.2615 2.88375 12.5659 3.63283 11.1567C4.59472 9.34729 6.79224 8.58992 8.66471 9.42252L10.612 10.2884C12.1055 10.9525 12.2149 13.0306 10.7994 13.8479L6.26075 16.4683Z" fill="currentColor"/>
<path fill-rule="evenodd" clip-rule="evenodd" d="M6.43764 7.63388L10.7991 10.152L10.5753 8.03269C10.4704 7.0391 9.61495 6.29587 8.61646 6.33083C7.71442 6.36242 6.89196 6.85457 6.43764 7.63388ZM5.26051 9.26367C4.40174 8.76786 4.1075 7.66975 4.60331 6.81098L4.70001 6.64349C5.49795 5.26142 6.95158 4.3879 8.54647 4.33206C10.5945 4.26035 12.3491 5.78477 12.5643 7.82268L12.7881 9.94198C12.9597 11.5675 11.2147 12.7013 9.79912 11.884L5.26051 9.26367Z" fill="currentColor"/>
<path d="M12 10.0362V4.79549C12 4.35616 12.3562 4 12.7955 4H12.9889C14.24 4 15.4028 4.6445 16.0659 5.70541C16.8737 6.99791 16.5443 8.69505 15.3117 9.59153L13.5882 10.845C12.9272 11.3257 12 10.8535 12 10.0362Z" stroke="currentColor" stroke-width="2"/>
</svg>
