<svg width="24" height="24" viewBox="0 0 24 24" fill="none" xmlns="http://www.w3.org/2000/svg">
<mask id="path-1-outside-1_5_11848" maskUnits="userSpaceOnUse" x="2" y="2" width="20" height="12" fill="black">
<rect fill="white" x="2" y="2" width="20" height="12"/>
<path fill-rule="evenodd" clip-rule="evenodd" d="M6 13H12H18C19.6569 13 21 11.6569 21 10C21 8.34315 19.6569 7 18 7C17.7205 7 17.5807 7 17.483 6.98034C17.185 6.92036 17.0435 6.82876 16.8667 6.58143C16.8088 6.50036 16.7272 6.31851 16.5639 5.95481C15.7822 4.21307 14.0328 3 12 3C9.96722 3 8.21776 4.21308 7.43606 5.95481C7.27282 6.31851 7.19121 6.50036 7.13328 6.58143C6.95652 6.82876 6.81502 6.92036 6.51699 6.98034C6.41931 7 6.27954 7 6 7C4.34315 7 3 8.34315 3 10C3 11.6569 4.34315 13 6 13Z"/>
</mask>
<path fill-rule="evenodd" clip-rule="evenodd" d="M6 13H12H18C19.6569 13 21 11.6569 21 10C21 8.34315 19.6569 7 18 7C17.7205 7 17.5807 7 17.483 6.98034C17.185 6.92036 17.0435 6.82876 16.8667 6.58143C16.8088 6.50036 16.7272 6.31851 16.5639 5.95481C15.7822 4.21307 14.0328 3 12 3C9.96722 3 8.21776 4.21308 7.43606 5.95481C7.27282 6.31851 7.19121 6.50036 7.13328 6.58143C6.95652 6.82876 6.81502 6.92036 6.51699 6.98034C6.41931 7 6.27954 7 6 7C4.34315 7 3 8.34315 3 10C3 11.6569 4.34315 13 6 13Z" fill="currentColor" fill-opacity="0.24"/>
<path d="M7.43606 5.95481L6.88866 5.70913L7.43606 5.95481ZM7.13328 6.58143L6.64512 6.23257L7.13328 6.58143ZM6.51699 6.98034L6.3986 6.39214L6.51699 6.98034ZM17.483 6.98034L17.3646 7.56854L17.483 6.98034ZM16.5639 5.95481L17.1113 5.70913L16.5639 5.95481ZM16.8667 6.58143L17.3549 6.23257L16.8667 6.58143ZM12 12.4H6V13.6H12V12.4ZM18 12.4H12V13.6H18V12.4ZM20.4 10C20.4 11.3255 19.3255 12.4 18 12.4V13.6C19.9882 13.6 21.6 11.9882 21.6 10H20.4ZM18 7.6C19.3255 7.6 20.4 8.67452 20.4 10H21.6C21.6 8.01178 19.9882 6.4 18 6.4V7.6ZM17.1113 5.70913C16.2364 3.75969 14.2776 2.4 12 2.4V3.6C13.7879 3.6 15.3281 4.66646 16.0165 6.20048L17.1113 5.70913ZM12 2.4C9.72236 2.4 7.76359 3.75969 6.88866 5.70913L7.98345 6.20048C8.67194 4.66646 10.2121 3.6 12 3.6V2.4ZM6 6.4C4.01177 6.4 2.4 8.01178 2.4 10H3.6C3.6 8.67452 4.67452 7.6 6 7.6V6.4ZM2.4 10C2.4 11.9882 4.01177 13.6 6 13.6V12.4C4.67452 12.4 3.6 11.3255 3.6 10H2.4ZM6.88866 5.70913C6.80584 5.89366 6.74784 6.02281 6.70331 6.11647C6.65409 6.21999 6.63936 6.24063 6.64512 6.23257L7.62143 6.93028C7.68512 6.84116 7.74017 6.73035 7.78705 6.63175C7.83862 6.52329 7.90304 6.37966 7.98345 6.20048L6.88866 5.70913ZM6 7.6C6.24415 7.6 6.46312 7.60322 6.63538 7.56854L6.3986 6.39214C6.40013 6.39183 6.38107 6.39565 6.30874 6.39781C6.23775 6.39994 6.1435 6.4 6 6.4V7.6ZM6.64512 6.23257C6.57934 6.32461 6.55126 6.34313 6.54458 6.34745C6.5379 6.35178 6.50951 6.36981 6.3986 6.39214L6.63538 7.56854C6.8225 7.53088 7.01388 7.47313 7.19664 7.35483C7.37941 7.23653 7.51046 7.08558 7.62143 6.93028L6.64512 6.23257ZM18 6.4C17.8565 6.4 17.7623 6.39994 17.6913 6.39781C17.6189 6.39565 17.5999 6.39183 17.6014 6.39214L17.3646 7.56854C17.5369 7.60322 17.7559 7.6 18 7.6V6.4ZM16.0165 6.20048C16.097 6.37966 16.1614 6.52329 16.213 6.63175C16.2598 6.73035 16.3149 6.84116 16.3786 6.93028L17.3549 6.23257C17.3606 6.24063 17.3459 6.21999 17.2967 6.11647C17.2522 6.02281 17.1942 5.89366 17.1113 5.70913L16.0165 6.20048ZM17.6014 6.39214C17.4905 6.36981 17.4621 6.35178 17.4554 6.34745C17.4487 6.34313 17.4207 6.32461 17.3549 6.23257L16.3786 6.93028C16.4895 7.08558 16.6206 7.23653 16.8034 7.35483C16.9861 7.47313 17.1775 7.53088 17.3646 7.56854L17.6014 6.39214Z" fill="currentColor" fill-opacity="0.24" mask="url(#path-1-outside-1_5_11848)"/>
<path fill-rule="evenodd" clip-rule="evenodd" d="M11.9999 2.40002C9.72226 2.40002 7.76349 3.75972 6.88856 5.70915C6.80575 5.89368 6.74774 6.02283 6.70321 6.11649C6.66788 6.19081 6.65032 6.22241 6.64535 6.23135L6.64535 6.23135L6.64535 6.23136C6.6434 6.23486 6.6434 6.23487 6.64502 6.2326C6.57924 6.32464 6.55116 6.34315 6.54448 6.34748C6.5378 6.3518 6.50941 6.36984 6.39851 6.39216C6.39858 6.39215 6.3986 6.39214 6.39858 6.39214L6.39848 6.39216C6.39684 6.39242 6.3755 6.39583 6.30864 6.39784C6.23765 6.39996 6.1434 6.40002 5.9999 6.40002C4.01168 6.40002 2.3999 8.0118 2.3999 10C2.3999 11.9883 4.01168 13.6 5.9999 13.6H6.57148L7.77148 12.4H5.9999C4.67442 12.4 3.5999 11.3255 3.5999 10C3.5999 8.67454 4.67442 7.60002 5.9999 7.60002L6.05723 7.60006H6.05724C6.27833 7.6003 6.47662 7.6005 6.63528 7.56857C6.8224 7.53091 7.01378 7.47316 7.19654 7.35485C7.37931 7.23655 7.51036 7.0856 7.62134 6.93031C7.68503 6.84119 7.74007 6.73037 7.78695 6.63177C7.83784 6.52474 7.90124 6.38347 7.98018 6.20759L7.98019 6.20756L7.98336 6.20051C8.67184 4.66648 10.212 3.60002 11.9999 3.60002C13.7878 3.60002 15.328 4.66648 16.0164 6.20051L16.0195 6.20734C16.0985 6.38334 16.1619 6.52469 16.2129 6.63177C16.2597 6.73037 16.3148 6.84119 16.3785 6.93031C16.4894 7.0856 16.6205 7.23655 16.8033 7.35485C16.986 7.47316 17.1774 7.53091 17.3645 7.56857C17.5232 7.6005 17.7215 7.6003 17.9426 7.60006H17.9426L17.9999 7.60002C19.3254 7.60002 20.3999 8.67454 20.3999 10C20.3999 11.3255 19.3254 12.4 17.9999 12.4H16.2283L17.4283 13.6H17.9999C19.9881 13.6 21.5999 11.9883 21.5999 10C21.5999 8.0118 19.9881 6.40002 17.9999 6.40002C17.8564 6.40002 17.7622 6.39996 17.6912 6.39784C17.6243 6.39583 17.603 6.39242 17.6013 6.39216C17.6012 6.39214 17.6012 6.39214 17.6013 6.39216C17.4904 6.36984 17.462 6.3518 17.4553 6.34748C17.4486 6.34315 17.4206 6.32464 17.3548 6.2326C17.3557 6.23384 17.3561 6.2344 17.3559 6.23408C17.3558 6.23381 17.3553 6.23294 17.3545 6.23135C17.3495 6.22242 17.3319 6.19082 17.2966 6.11649C17.2521 6.02283 17.1941 5.89368 17.1112 5.70915C16.2363 3.75972 14.2775 2.40002 11.9999 2.40002Z" fill="currentColor"/>
<path d="M12 12L11.5757 11.5757L12 11.1515L12.4243 11.5757L12 12ZM12.6 21C12.6 21.3314 12.3314 21.6 12 21.6C11.6686 21.6 11.4 21.3314 11.4 21L12.6 21ZM7.57574 15.5757L11.5757 11.5757L12.4243 12.4243L8.42426 16.4243L7.57574 15.5757ZM12.4243 11.5757L16.4243 15.5757L15.5757 16.4243L11.5757 12.4243L12.4243 11.5757ZM12.6 12L12.6 21L11.4 21L11.4 12L12.6 12Z" fill="currentColor"/>
</svg>
