<svg width="24" height="24" viewBox="0 0 24 24" fill="none" xmlns="http://www.w3.org/2000/svg">
<circle cx="12" cy="8" r="4" fill="currentColor" fill-opacity="0.24" stroke="currentColor" stroke-width="1.2" stroke-linecap="round"/>
<path fill-rule="evenodd" clip-rule="evenodd" d="M15.5911 16C15.1398 15.8416 14.6706 15.7131 14.1888 15.6162C12.7543 15.328 11.2458 15.328 9.81129 15.6162C8.37733 15.9044 7.05554 16.4731 5.9832 17.2774C4.91049 18.0819 4.11633 19.1013 3.70763 20.2452C3.59614 20.5573 3.75873 20.9006 4.07079 21.0121C4.38284 21.1236 4.72619 20.961 4.83767 20.649C5.15589 19.7583 5.78994 18.9223 6.7032 18.2374C7.61683 17.5522 8.76879 17.0497 10.0477 16.7927C10.8677 16.6279 11.7163 16.5688 12.5568 16.6154C12.9208 16.2361 13.4329 16 14.0001 16L15.5911 16Z" fill="currentColor"/>
<path d="M18 14L18 22" stroke="currentColor" stroke-width="1.2" stroke-linecap="round"/>
<path d="M22 18L14 18" stroke="currentColor" stroke-width="1.2" stroke-linecap="round"/>
</svg>
