<svg width="24" height="24" viewBox="0 0 24 24" fill="none" xmlns="http://www.w3.org/2000/svg">
<circle cx="12" cy="12" r="12" fill="#FFF3D0"/>
<path fill-rule="evenodd" clip-rule="evenodd" d="M12 5.5C8.41 5.5 5.5 8.41 5.5 12C5.5 15.59 8.41 18.5 12 18.5C15.59 18.5 18.5 15.59 18.5 12C18.5 8.41 15.59 5.5 12 5.5ZM12.5 8C12.5 7.86739 12.4473 7.74021 12.3536 7.64645C12.2598 7.55268 12.1326 7.5 12 7.5C11.8674 7.5 11.7402 7.55268 11.6464 7.64645C11.5527 7.74021 11.5 7.86739 11.5 8V12C11.5 12.276 11.724 12.5 12 12.5H15C15.1326 12.5 15.2598 12.4473 15.3536 12.3536C15.4473 12.2598 15.5 12.1326 15.5 12C15.5 11.8674 15.4473 11.7402 15.3536 11.6464C15.2598 11.5527 15.1326 11.5 15 11.5H12.5V8Z" fill="#F5BF00"/>
</svg>
