<svg width="26" height="26" viewBox="0 0 26 26" fill="none" xmlns="http://www.w3.org/2000/svg">
<circle cx="13" cy="13" r="12.5" fill="#FFEDDF" stroke="#E8EDF3"/>
<path d="M10.333 16.3334H11.6663V15.6667H12.333C12.6997 15.6667 12.9997 15.3667 12.9997 15.0001V13.0001C12.9997 12.6334 12.6997 12.3334 12.333 12.3334H10.333V11.6667H12.9997V10.3334H11.6663V9.66675H10.333V10.3334H9.66634C9.29967 10.3334 8.99967 10.6334 8.99967 11.0001V13.0001C8.99967 13.3667 9.29967 13.6667 9.66634 13.6667H11.6663V14.3334H8.99967V15.6667H10.333V16.3334ZM18.333 7.66675H7.66634C6.92634 7.66675 6.33967 8.26008 6.33967 9.00008L6.33301 17.0001C6.33301 17.7401 6.92634 18.3334 7.66634 18.3334H18.333C19.073 18.3334 19.6663 17.7401 19.6663 17.0001V9.00008C19.6663 8.26008 19.073 7.66675 18.333 7.66675ZM18.333 17.0001H7.66634V9.00008H18.333V17.0001ZM14.333 11.6667L15.6663 10.3334L16.9997 11.6667M16.9997 14.5001L15.6663 15.8334L14.333 14.5001" fill="#ED8400"/>
</svg>
