<svg width="24" height="24" viewBox="0 0 24 24" fill="none" xmlns="http://www.w3.org/2000/svg">
<circle cx="12" cy="12" r="12" fill="#FFF3D0"/>
<path d="M12.0004 12.3428L15.429 10.3999V12.5714C15.829 12.5714 16.229 12.6285 16.5718 12.7999V9.4285C16.5718 9.19993 16.4576 9.0285 16.2861 8.91422L11.7718 6.39993C11.6576 6.34279 11.5433 6.28564 11.429 6.28564C11.3147 6.28564 11.2004 6.34279 11.0861 6.39993L6.57185 8.91422C6.40042 9.0285 6.28613 9.19993 6.28613 9.4285V14.5714C6.28613 14.7999 6.40042 14.9714 6.57185 15.0856L11.0861 17.5999C11.2004 17.6571 11.3147 17.7142 11.429 17.7142C11.5433 17.7142 11.6576 17.6571 11.7718 17.5999L12.2861 17.3142C12.1147 16.9714 12.0576 16.5714 12.0004 16.1714M11.429 7.54279L14.8576 9.4285L13.7147 10.0571L10.3433 8.11422L11.429 7.54279ZM10.8576 16.1714L7.42899 14.2285V10.3999L10.8576 12.3428V16.1714ZM11.429 11.3142L8.00042 9.4285L9.14328 8.74279L12.5718 10.7428L11.429 11.3142ZM17.7147 15.4285V16.5714H13.1433V15.4285H17.7147Z" fill="#FFC723"/>
</svg>
