<svg width="24" height="24" viewBox="0 0 24 24" fill="none" xmlns="http://www.w3.org/2000/svg">
<path fill-rule="evenodd" clip-rule="evenodd" d="M15.9202 12.7988C15.9725 12.5407 16 12.2736 16 12C16 9.79086 14.2091 8 12 8C11.7264 8 11.4593 8.02746 11.2012 8.07977L12.3421 9.22069C13.615 9.37575 14.6243 10.385 14.7793 11.6579L15.9202 12.7988ZM9.54012 10.6614C9.32325 11.059 9.2 11.5151 9.2 12C9.2 13.5464 10.4536 14.8 12 14.8C12.4849 14.8 12.941 14.6768 13.3386 14.4599L14.212 15.3332C13.5784 15.7545 12.8179 16 12 16C9.79086 16 8 14.2091 8 12C8 11.1821 8.24547 10.4216 8.66676 9.78799L9.54012 10.6614Z" fill="currentColor"/>
<path fill-rule="evenodd" clip-rule="evenodd" d="M15.9202 12.7988C15.9725 12.5407 16 12.2736 16 12C16 9.79086 14.2091 8 12 8C11.7264 8 11.4593 8.02746 11.2012 8.07977L12.3421 9.22069C13.615 9.37575 14.6243 10.385 14.7793 11.6579L15.9202 12.7988ZM9.54012 10.6614C9.32325 11.059 9.2 11.5151 9.2 12C9.2 13.5464 10.4536 14.8 12 14.8C12.4849 14.8 12.941 14.6768 13.3386 14.4599L14.212 15.3332C13.5784 15.7545 12.8179 16 12 16C9.79086 16 8 14.2091 8 12C8 11.1821 8.24547 10.4216 8.66676 9.78799L9.54012 10.6614Z" fill="currentColor"/>
<path fill-rule="evenodd" clip-rule="evenodd" d="M16.2268 17.3481L15.3455 16.4668C14.2994 17.0319 13.1681 17.3999 11.9999 17.3999C10.3573 17.3999 8.78766 16.6723 7.42544 15.6923C6.06796 14.7156 4.96717 13.5245 4.27501 12.6842C4.06993 12.4352 3.95894 12.298 3.89048 12.1832C3.8374 12.0942 3.82964 12.0507 3.82964 11.9999C3.82964 11.9491 3.8374 11.9056 3.89048 11.8166C3.95894 11.7018 4.06993 11.5646 4.27501 11.3156C4.9435 10.504 5.99317 9.36522 7.28712 8.40844L6.42991 7.55123C5.09508 8.56374 4.02745 9.72872 3.34875 10.5527L3.28522 10.6295C2.9596 11.0224 2.62964 11.4205 2.62964 11.9999C2.62964 12.5793 2.9596 12.9774 3.28522 13.3703L3.34875 13.4471C4.07669 14.3309 5.25205 15.6069 6.72462 16.6664C8.19246 17.7224 10.0068 18.5999 11.9999 18.5999C13.5417 18.5999 14.9766 18.0748 16.2268 17.3481ZM9.11292 5.9916C10.014 5.62802 10.9837 5.3999 11.9999 5.3999C13.993 5.3999 15.8074 6.2774 17.2752 7.33344C18.7478 8.3929 19.9231 9.66894 20.6511 10.5527L20.7146 10.6295C21.0402 11.0224 21.3702 11.4205 21.3702 11.9999C21.3702 12.5793 21.0402 12.9774 20.7146 13.3703L20.6511 13.4471C20.1694 14.0319 19.4918 14.7885 18.6617 15.5404L17.8121 14.6908C18.6046 13.978 19.2578 13.2512 19.7248 12.6842C19.9299 12.4352 20.0409 12.298 20.1093 12.1832C20.1624 12.0942 20.1702 12.0507 20.1702 11.9999C20.1702 11.9491 20.1624 11.9056 20.1093 11.8166C20.0409 11.7018 19.9299 11.5646 19.7248 11.3156C19.0327 10.4753 17.9319 9.28419 16.5744 8.30754C15.2122 7.32748 13.6425 6.5999 11.9999 6.5999C11.3343 6.5999 10.6807 6.71936 10.048 6.92668L9.11292 5.9916Z" fill="currentColor" fill-opacity="0.24"/>
<path d="M5 2L21 18" stroke="currentColor" stroke-width="1.2"/>
</svg>
