<svg width="24" height="24" viewBox="0 0 24 24" fill="none" xmlns="http://www.w3.org/2000/svg">
<path d="M11.9776 7.83364C12.6704 9.16023 13.0214 10.6386 12.999 12.1351C12.9765 13.6315 12.5812 15.0987 11.8489 16.4039" stroke="currentColor" stroke-width="2"/>
<path d="M14 5C11.1857 7.81427 3.97138 11.5086 3.0889 11.9552C3.05214 11.9738 3.05214 12.0262 3.0889 12.0448C3.97137 12.4914 11.1857 16.1857 14 19" stroke="currentColor" stroke-width="2" stroke-linecap="round"/>
<path d="M16 12H21" stroke="currentColor" stroke-width="2" stroke-linecap="round"/>
<path d="M16 9L21 7" stroke="currentColor" stroke-width="2" stroke-linecap="round"/>
<path d="M16 15L21 17" stroke="currentColor" stroke-width="2" stroke-linecap="round"/>
<path d="M11.794 7.4996C12.5424 8.79567 12.9557 10.2579 12.9966 11.7539C13.0376 13.25 12.7047 14.7326 12.0283 16.0677" stroke="currentColor" stroke-width="2"/>
<path d="M12.5176 13.9314C12.2213 14.0108 11.9107 14.0209 11.6098 13.9611C11.3089 13.9012 11.0259 13.773 10.7825 13.5862C10.5391 13.3995 10.3419 13.1592 10.2063 12.8841C10.0706 12.609 10 12.3063 10 11.9995C10 11.6927 10.0706 11.3901 10.2063 11.1149C10.3419 10.8398 10.5391 10.5996 10.7825 10.4128C11.0259 10.2261 11.3089 10.0978 11.6098 10.0379C11.9107 9.97809 12.2213 9.98826 12.5176 10.0677" stroke="currentColor" stroke-width="2"/>
</svg>
