<svg width="24" height="24" viewBox="0 0 24 24" fill="none" xmlns="http://www.w3.org/2000/svg">
<path fill-rule="evenodd" clip-rule="evenodd" d="M11 3.0553V7.94802C10.393 7.88458 9.79969 7.76365 9.23525 7.5883C8.36356 7.3175 7.5863 6.92498 6.94318 6.44264C6.52012 6.12534 6.1634 5.77553 5.87598 5.40518C7.25277 4.12616 9.03064 3.27301 11 3.0553ZM13 3.0553V7.94802C13.6071 7.88458 14.2004 7.76365 14.7648 7.5883C15.6365 7.3175 16.4138 6.92498 17.0569 6.44264C17.48 6.12534 17.8367 5.77553 18.1241 5.40517C16.7473 4.12616 14.9694 3.273 13 3.0553ZM19.4465 6.94412C19.0977 7.34371 18.6984 7.71149 18.2569 8.04264C17.4143 8.67461 16.4277 9.166 15.3582 9.49826C14.6001 9.73377 13.8065 9.88744 13 9.95701V11L20.9451 11C20.78 9.50766 20.2501 8.1253 19.4465 6.94412ZM20.9452 13L13 13V14.043C13.8065 14.1126 14.6001 14.2662 15.3582 14.5017C16.4277 14.834 17.4143 15.3254 18.2569 15.9574C18.6985 16.2886 19.0979 16.6565 19.4468 17.0562C20.2504 15.8749 20.7802 14.4924 20.9452 13ZM18.1244 18.5953C17.837 18.2247 17.4801 17.8748 17.0569 17.5574C16.4138 17.075 15.6365 16.6825 14.7648 16.4117C14.2004 16.2364 13.6071 16.1154 13 16.052V20.9454C14.9696 20.7277 16.7476 19.8744 18.1244 18.5953ZM11 20.9454V16.052C10.393 16.1154 9.79969 16.2364 9.23525 16.4117C8.36356 16.6825 7.5863 17.075 6.94318 17.5574C6.51996 17.8748 6.16312 18.2247 5.87565 18.5952C7.25248 19.8744 9.03049 20.7277 11 20.9454ZM4.55327 17.0562C4.90217 16.6565 5.30154 16.2886 5.74319 15.9574C6.58581 15.3254 7.57237 14.834 8.6419 14.5017C9.4 14.2662 10.1936 14.1126 11 14.043V13L3.05493 13C3.21985 14.4924 3.7497 15.8749 4.55327 17.0562ZM3.05501 11L11 11V9.95701C10.1936 9.88744 9.4 9.73377 8.6419 9.49826C7.57237 9.166 6.58581 8.67461 5.74319 8.04264C5.30166 7.71149 4.90239 7.34371 4.55355 6.94412C3.74996 8.1253 3.22005 9.50766 3.05501 11Z" fill="currentColor"/>
</svg>
