<svg width="20" height="20" viewBox="0 0 20 20" fill="none" xmlns="http://www.w3.org/2000/svg">
<path d="M18.9391 5.18622C18.9392 5.75762 18.8205 6.3228 18.5907 6.84594C18.3608 7.36907 18.0248 7.83875 17.6039 8.22519C17.183 8.61163 16.6864 8.9064 16.1455 9.09083C15.6047 9.27526 15.0315 9.34531 14.4621 9.29655C13.4758 9.21313 12.3868 9.36163 11.758 10.1252L5.20198 18.0856C4.99517 18.3376 4.73787 18.5436 4.44664 18.6903C4.15541 18.8369 3.8367 18.921 3.51103 18.937C3.18536 18.953 2.85994 18.9007 2.55572 18.7833C2.2515 18.666 1.97521 18.4863 1.74465 18.2557C1.51408 18.0252 1.33435 17.7489 1.21702 17.4446C1.09968 17.1404 1.04734 16.815 1.06337 16.4893C1.0794 16.1637 1.16344 15.845 1.31008 15.5537C1.45673 15.2625 1.66272 15.0052 1.91481 14.7984L9.87515 8.24238C10.6387 7.61355 10.7872 6.52455 10.7038 5.53822C10.6423 4.82154 10.7692 4.10123 11.072 3.44876C11.3748 2.79629 11.843 2.23435 12.4301 1.8187C13.0171 1.40305 13.7027 1.14814 14.4187 1.07926C15.1347 1.01038 15.8563 1.12993 16.5118 1.42605L13.5088 4.42905C13.625 4.93147 13.8799 5.39117 14.2446 5.75581C14.6092 6.12045 15.0689 6.37537 15.5713 6.49155L18.5743 3.48855C18.809 4.00647 18.9391 4.58122 18.9391 5.18622Z" stroke="#3A3B3C" stroke-width="1.5" stroke-linecap="round" stroke-linejoin="round"/>
</svg>
