<svg width="16" height="16" viewBox="0 0 16 16" fill="none" xmlns="http://www.w3.org/2000/svg">
<path d="M2.25 3C1.55933 3 1 3.56 1 4.25V9H9V4.25C9 3.55933 8.44 3 7.75 3H2.25ZM9 10H1V11.75C1 12.44 1.56 13 2.25 13H2.5C2.5 12.4696 2.71071 11.9609 3.08579 11.5858C3.46086 11.2107 3.96957 11 4.5 11C5.03043 11 5.53914 11.2107 5.91421 11.5858C6.28929 11.9609 6.5 12.4696 6.5 13H8.5C8.63261 13 8.75979 12.9473 8.85355 12.8536C8.94732 12.7598 9 12.6326 9 12.5V10Z" fill="#3A3B3C"/>
<path d="M5.5 13C5.5 12.7348 5.39464 12.4804 5.20711 12.2929C5.01957 12.1054 4.76522 12 4.5 12C4.23478 12 3.98043 12.1054 3.79289 12.2929C3.60536 12.4804 3.5 12.7348 3.5 13C3.5 13.2652 3.60536 13.5196 3.79289 13.7071C3.98043 13.8947 4.23478 14 4.5 14C4.76522 14 5.01957 13.8947 5.20711 13.7071C5.39464 13.5196 5.5 13.2652 5.5 13ZM10.5 4.50001C10.3674 4.50001 10.2402 4.55269 10.1464 4.64646C10.0527 4.74023 10 4.8674 10 5.00001V12.5C10 12.558 10.01 12.6133 10.028 12.6653C10.1111 12.1728 10.3755 11.7291 10.7692 11.4217C11.1629 11.1143 11.6574 10.9653 12.1554 11.0041C12.6534 11.0429 13.1189 11.2666 13.4603 11.6313C13.8016 11.996 13.9942 12.4752 14 12.9747C14.5687 12.858 15.0147 12.3513 14.976 11.7193C14.8269 9.27825 13.9615 6.93528 12.488 4.98334C12.3732 4.83241 12.225 4.71019 12.0549 4.62632C11.8848 4.54245 11.6976 4.49921 11.508 4.50001H10.5Z" fill="#3A3B3C"/>
<path d="M13 13C13 12.7348 12.8946 12.4804 12.7071 12.2929C12.5196 12.1054 12.2652 12 12 12C11.7348 12 11.4804 12.1054 11.2929 12.2929C11.1054 12.4804 11 12.7348 11 13C11 13.2652 11.1054 13.5196 11.2929 13.7071C11.4804 13.8946 11.7348 14 12 14C12.2652 14 12.5196 13.8946 12.7071 13.7071C12.8946 13.5196 13 13.2652 13 13Z" fill="#3A3B3C"/>
</svg>
